<svg width="228" height="183" viewBox="0 0 228 183" fill="none" xmlns="http://www.w3.org/2000/svg">
<path fill-rule="evenodd" clip-rule="evenodd" d="M0 11.4375C0 8.40409 1.20107 5.49492 3.33898 3.34997C5.4769 1.20502 8.37653 0 11.4 0H91.2C94.2232 0.00064779 97.1224 1.20609 99.2598 3.35119L118.72 22.875H216.6C219.623 22.875 222.523 24.08 224.661 26.225C226.799 28.3699 228 31.2791 228 34.3125V148.688C228 157.788 224.397 166.515 217.983 172.95C211.569 179.385 202.87 183 193.8 183H34.2C25.1296 183 16.4307 179.385 10.0169 172.95C3.6032 166.515 0 157.788 0 148.688V11.4375ZM91.2 91.5C88.1765 91.5 85.2769 92.705 83.139 94.85C81.0011 96.9949 79.8 99.9041 79.8 102.938C79.8 105.971 81.0011 108.88 83.139 111.025C85.2769 113.17 88.1765 114.375 91.2 114.375H136.8C139.823 114.375 142.723 113.17 144.861 111.025C146.999 108.88 148.2 105.971 148.2 102.938C148.2 99.9041 146.999 96.9949 144.861 94.85C142.723 92.705 139.823 91.5 136.8 91.5H91.2Z" fill="white"/>
</svg>
