<svg width="296" height="107" viewBox="0 0 296 107" fill="none" xmlns="http://www.w3.org/2000/svg">
<path d="M145.935 58.455L130.425 65.165C130.535 66.3017 130.828 67.475 131.305 68.685C131.818 69.895 132.57 70.9033 133.56 71.71C134.587 72.5167 135.907 72.92 137.52 72.92C139.023 72.92 140.49 72.535 141.92 71.765C143.387 70.995 144.743 70.1333 145.99 69.18L146.595 69.29L147.31 70.28C146.173 71.3433 144.927 72.37 143.57 73.36C142.25 74.3133 140.838 75.1017 139.335 75.725C137.868 76.3483 136.347 76.66 134.77 76.66C132.937 76.66 131.415 76.275 130.205 75.505C129.032 74.735 128.115 73.7267 127.455 72.48C126.795 71.1967 126.318 69.785 126.025 68.245C125.768 66.6683 125.64 65.11 125.64 63.57C125.64 61.9567 125.842 60.38 126.245 58.84C126.648 57.3 127.382 55.9067 128.445 54.66C129.802 53.0833 131.415 51.8733 133.285 51.03C135.192 50.15 137.19 49.71 139.28 49.71C141.663 49.71 143.552 50.4433 144.945 51.91C146.375 53.3767 147.09 55.1733 147.09 57.3C147.09 57.63 146.962 57.8683 146.705 58.015C146.485 58.1617 146.228 58.3083 145.935 58.455ZM132.735 54.22C131.672 55.3567 130.975 56.5483 130.645 57.795C130.352 59.0417 130.205 60.3433 130.205 61.7C130.205 61.8467 130.205 62.0117 130.205 62.195C130.242 62.3417 130.278 62.5067 130.315 62.69L130.535 62.91L141.645 58.51C141.828 58.4367 141.993 58.29 142.14 58.07C142.287 57.85 142.36 57.52 142.36 57.08C142.36 56.31 142.158 55.5217 141.755 54.715C141.352 53.9083 140.765 53.2483 139.995 52.735C139.262 52.185 138.382 51.91 137.355 51.91C136.438 51.91 135.577 52.1117 134.77 52.515C134 52.9183 133.322 53.4867 132.735 54.22ZM169.47 76.22C169.47 75.6333 169.507 74.5517 169.58 72.975C169.69 71.3983 169.782 69.565 169.855 67.475C169.965 65.385 170.02 63.295 170.02 61.205C170.02 58.9317 169.727 57.1717 169.14 55.925C168.554 54.6417 167.344 54 165.51 54C164.667 54 163.769 54.1833 162.815 54.55C161.899 54.88 161.092 55.2467 160.395 55.65C159.699 56.0533 159.259 56.31 159.075 56.42C159.002 58.4 158.929 60.38 158.855 62.36C158.819 64.34 158.8 66.3383 158.8 68.355C158.8 69.4917 158.8 70.6467 158.8 71.82C158.837 72.9567 158.874 74.0933 158.91 75.23L155.225 76.55L154.455 76.11C154.492 73.58 154.565 71.05 154.675 68.52C154.785 65.99 154.84 63.4783 154.84 60.985C154.84 59.5917 154.804 58.3267 154.73 57.19C154.694 56.0167 154.529 55.0817 154.235 54.385C153.942 53.6883 153.41 53.34 152.64 53.34C152.2 53.34 151.559 53.5233 150.715 53.89C149.872 54.22 149.139 54.5683 148.515 54.935L147.855 53.89C148.955 53.01 150.147 52.1667 151.43 51.36C152.714 50.5533 154.034 50.1317 155.39 50.095C156.784 50.095 157.7 50.5167 158.14 51.36C158.58 52.2033 158.8 53.1383 158.8 54.165L159.24 54.495C160.67 53.725 162.192 52.9183 163.805 52.075C165.419 51.195 167.05 50.755 168.7 50.755C169.727 50.755 170.68 51.0117 171.56 51.525C172.44 52.0383 173.137 52.735 173.65 53.615L174.53 53.725C175.227 53.3583 176.052 52.9367 177.005 52.46C177.959 51.9833 178.985 51.58 180.085 51.25C181.185 50.8833 182.267 50.7 183.33 50.7C184.137 50.7 184.907 50.81 185.64 51.03C186.41 51.2133 187.089 51.5983 187.675 52.185C188.409 52.9183 188.775 54.11 188.775 55.76C188.775 57.41 188.775 59.61 188.775 62.36V69.565C188.775 70.0417 188.83 70.5733 188.94 71.16C189.087 71.71 189.362 72.1867 189.765 72.59C190.169 72.9567 190.774 73.14 191.58 73.14C192.167 73.14 192.845 72.9017 193.615 72.425C194.422 71.9117 195.155 71.4167 195.815 70.94H196.585L196.97 72.095C196.164 72.8283 195.284 73.58 194.33 74.35C193.377 75.12 192.387 75.7433 191.36 76.22C190.334 76.7333 189.27 76.99 188.17 76.99C186.887 76.99 185.934 76.55 185.31 75.67C184.724 74.7533 184.43 73.7817 184.43 72.755C184.43 72.535 184.449 72.0033 184.485 71.16C184.522 70.3167 184.54 69.3267 184.54 68.19C184.577 67.0167 184.614 65.825 184.65 64.615C184.687 63.3683 184.705 62.2317 184.705 61.205C184.705 58.9317 184.375 57.1717 183.715 55.925C183.055 54.6417 181.827 54 180.03 54C178.674 54 177.5 54.2017 176.51 54.605C175.52 55.0083 174.64 55.43 173.87 55.87C173.834 57.1167 173.797 58.3817 173.76 59.665C173.76 60.9117 173.76 62.1767 173.76 63.46C173.76 67.3467 173.87 71.1967 174.09 75.01L170.02 76.55L169.47 76.22ZM209.733 76.77C207.203 76.77 205.168 76.22 203.628 75.12C202.125 73.9833 201.025 72.535 200.328 70.775C199.631 69.015 199.21 67.1633 199.063 65.22C199.063 63.3133 199.228 61.4067 199.558 59.5C199.925 57.5933 200.768 55.925 202.088 54.495C203.371 53.065 204.93 52.0383 206.763 51.415C208.633 50.755 210.521 50.425 212.428 50.425C215.141 50.425 217.286 51.03 218.863 52.24C220.44 53.45 221.576 55.0083 222.273 56.915C222.97 58.8217 223.318 60.8017 223.318 62.855C223.318 64.6517 223.08 66.4117 222.603 68.135C222.163 69.8583 221.338 71.3983 220.128 72.755C218.845 74.2217 217.268 75.2667 215.398 75.89C213.565 76.4767 211.676 76.77 209.733 76.77ZM204.233 58.62C204.086 59.3167 203.976 60.0133 203.903 60.71C203.83 61.4067 203.793 62.1217 203.793 62.855C203.793 63.9917 203.903 65.2383 204.123 66.595C204.343 67.9517 204.71 69.235 205.223 70.445C205.773 71.6183 206.525 72.59 207.478 73.36C208.468 74.13 209.715 74.515 211.218 74.515C212.721 74.515 213.931 74.185 214.848 73.525C215.801 72.865 216.535 72.0033 217.048 70.94C217.561 69.8767 217.91 68.7217 218.093 67.475C218.313 66.2283 218.423 65.0367 218.423 63.9C218.423 62.7633 218.331 61.5533 218.148 60.27C217.965 58.95 217.616 57.7033 217.103 56.53C216.626 55.3567 215.893 54.4033 214.903 53.67C213.95 52.9367 212.703 52.57 211.163 52.57C209.696 52.57 208.303 53.065 206.983 54.055C205.663 55.045 204.746 56.5667 204.233 58.62ZM245.324 57.355L244.664 57.08C244.517 56.31 244.224 55.595 243.784 54.935C243.344 54.2383 242.666 53.89 241.749 53.89C240.612 53.89 239.696 54.275 238.999 55.045C238.302 55.815 237.807 56.5667 237.514 57.3C237.257 57.8867 237.111 58.73 237.074 59.83C237.037 60.93 237.037 62.1033 237.074 63.35C237.111 64.56 237.129 65.66 237.129 66.65C237.129 69.4 237.184 72.1867 237.294 75.01L233.444 76.165L232.619 75.67C232.802 73.7267 232.949 71.6183 233.059 69.345C233.206 67.0717 233.279 64.835 233.279 62.635C233.279 61.205 233.261 59.775 233.224 58.345C233.187 56.915 233.004 55.7233 232.674 54.77C232.344 53.8167 231.757 53.34 230.914 53.34C230.291 53.34 229.594 53.5233 228.824 53.89C228.054 54.2567 227.321 54.6417 226.624 55.045L225.964 54.11C226.697 53.5233 227.486 52.9183 228.329 52.295C229.209 51.6717 230.089 51.14 230.969 50.7C231.849 50.2233 232.656 49.985 233.389 49.985C234.636 49.985 235.571 50.3517 236.194 51.085C236.817 51.8183 237.202 52.7717 237.349 53.945L237.899 54.165C238.449 53.6517 239.054 53.1017 239.714 52.515C240.411 51.8917 241.126 51.3783 241.859 50.975C242.592 50.535 243.289 50.315 243.949 50.315C246.552 50.315 248.001 51.7633 248.294 54.66L245.324 57.355ZM270.02 52.295L272.935 50.59L273.21 50.865C272.99 54.8617 272.88 58.8583 272.88 62.855C272.88 63.6983 272.843 64.7067 272.77 65.88C272.733 67.0533 272.751 68.19 272.825 69.29C272.898 70.39 273.1 71.3067 273.43 72.04C273.76 72.7733 274.291 73.14 275.025 73.14C275.428 73.14 275.978 73.03 276.675 72.81C277.371 72.59 278.013 72.37 278.6 72.15L278.985 73.47C278.251 73.91 277.463 74.3867 276.62 74.9C275.776 75.3767 274.951 75.78 274.145 76.11C273.338 76.4767 272.641 76.66 272.055 76.66C271.028 76.66 270.295 76.3483 269.855 75.725C269.415 75.1017 269.103 74.3317 268.92 73.415L268.095 73.195C266.738 74.075 265.308 74.8817 263.805 75.615C262.301 76.3117 260.743 76.66 259.13 76.66C257.59 76.66 256.306 76.33 255.28 75.67C254.253 75.01 253.428 74.1483 252.805 73.085C252.181 72.0217 251.723 70.8667 251.43 69.62C251.173 68.3367 251.045 67.0717 251.045 65.825C251.045 63.8817 251.283 61.9933 251.76 60.16C252.273 58.3267 253.043 56.6767 254.07 55.21C255.133 53.7067 256.49 52.5333 258.14 51.69C259.79 50.81 261.788 50.37 264.135 50.37C265.015 50.37 265.986 50.535 267.05 50.865C268.15 51.195 269.14 51.6717 270.02 52.295ZM268.81 70.555V57.905C268.81 57.1717 268.773 56.475 268.7 55.815C268.626 55.155 268.37 54.5867 267.93 54.11C267.453 53.5967 266.885 53.175 266.225 52.845C265.565 52.4783 264.886 52.295 264.19 52.295C262.173 52.295 260.431 52.9917 258.965 54.385C258.341 54.9717 257.7 56.0533 257.04 57.63C256.416 59.2067 256.068 61.3883 255.995 64.175C255.958 65.3117 256.05 66.4667 256.27 67.64C256.49 68.7767 256.911 69.8217 257.535 70.775C258.121 71.6917 258.91 72.2967 259.9 72.59C260.926 72.8833 261.953 73.03 262.98 73.03C264.043 73.03 265.07 72.7733 266.06 72.26C267.086 71.7467 268.003 71.1783 268.81 70.555Z" fill="#122650"/>
<path d="M117.368 3.58383C115.493 0.0421627 112.701 -0.874504 108.993 0.833829C107.784 1.3755 105.763 2.97966 102.93 5.64633C100.138 8.27133 97.9301 10.6463 96.3051 12.7713C90.7635 19.8963 86.5551 25.7713 83.6801 30.3963C81.1385 34.3963 79.5551 36.6672 78.9301 37.2088C78.4718 37.6255 77.9926 37.5213 77.4926 36.8963C77.1176 36.438 76.9093 35.688 76.8676 34.6463C76.826 33.6047 76.8885 31.2922 77.0551 27.7088C77.3468 22.1672 77.4301 17.063 77.3051 12.3963C77.1801 7.72966 76.8885 4.83383 76.4301 3.70883C75.7218 2.1255 74.6593 1.22966 73.2426 1.02133C71.8676 0.771329 70.2635 1.2505 68.4301 2.45883C67.0135 3.41716 63.7218 4.60466 58.5551 6.02133C53.4301 7.39633 47.3885 8.7505 40.4301 10.0838C29.8051 12.1672 21.701 14.5005 16.1176 17.0838C10.5343 19.6255 6.80515 22.7297 4.93015 26.3963C3.05515 30.1463 2.63848 33.6463 3.68015 36.8963C4.76348 40.1463 7.18015 42.688 10.9301 44.5213C12.5551 45.313 14.1176 45.7505 15.6176 45.8338C17.7843 46.0005 19.0968 45.5422 19.5551 44.4588C20.0968 43.2088 19.1385 41.8755 16.6801 40.4588C13.8468 38.8338 12.5968 36.6047 12.9301 33.7713C13.3051 30.938 15.2218 27.8547 18.6801 24.5213C20.9301 22.313 24.8468 20.1463 30.4301 18.0213C36.0135 15.8963 42.3468 14.1463 49.4301 12.7713C53.3051 12.063 56.6385 11.2297 59.4301 10.2713C62.5968 9.14633 64.2843 8.85466 64.4926 9.39633C64.7426 9.89633 63.9301 12.1255 62.0551 16.0838C61.0135 18.2088 57.8676 26.0422 52.6176 39.5838C47.3676 53.0838 43.701 61.5838 41.6176 65.0838C39.951 67.9588 38.2843 70.5422 36.6176 72.8338C34.951 75.1255 33.8676 76.3547 33.3676 76.5213C32.6593 76.7713 31.326 77.8755 29.3676 79.8338C23.576 85.5005 18.5343 86.438 14.2426 82.6463C11.9926 80.688 10.6593 78.3755 10.2426 75.7088C9.82598 73.0005 10.3468 70.5005 11.8051 68.2088C13.3051 65.9172 15.4926 64.3338 18.3676 63.4588C20.7426 62.7505 22.6593 62.7922 24.1176 63.5838C25.6176 64.3755 26.3468 65.7088 26.3051 67.5838C26.3051 69.4588 25.4926 71.4172 23.8676 73.4588C23.0343 74.5005 22.5135 75.438 22.3051 76.2713C21.9301 77.6047 22.2843 78.3547 23.3676 78.5213C24.7843 78.7713 26.4718 77.8338 28.4301 75.7088C29.0968 74.9588 29.9093 74.5838 30.8676 74.5838C31.826 74.5838 32.4301 74.2713 32.6801 73.6463C32.9301 72.9797 33.0551 71.3755 33.0551 68.8338C33.0551 65.9172 32.201 63.1672 30.4926 60.5838C28.7843 58.0005 26.7843 56.4172 24.4926 55.8338C22.2426 55.2505 18.9093 55.4588 14.4926 56.4588C10.1176 57.4588 7.11765 58.6672 5.49265 60.0838C2.53431 62.6672 0.76348 66.3547 0.180147 71.1463C-0.403186 75.938 0.430147 80.0005 2.68015 83.3338C3.88848 85.0838 6.09681 86.8755 9.30515 88.7088C12.5551 90.5422 15.1593 91.4797 17.1176 91.5213C22.9926 91.6463 28.1801 89.9797 32.6801 86.5213C37.1801 83.0213 41.5135 77.2922 45.6801 69.3338C49.8468 61.3755 54.326 50.2922 59.1176 36.0838C60.9926 30.5422 62.3676 26.7297 63.2426 24.6463C64.1176 22.5213 64.7843 21.4588 65.2426 21.4588C65.9926 21.4588 65.9301 24.813 65.0551 31.5213C64.2218 38.2297 63.2843 45.4797 62.2426 53.2713C61.2426 61.0213 60.9718 65.7713 61.4301 67.5213C61.8885 69.188 62.826 70.2505 64.2426 70.7088C65.6593 71.1672 66.8468 70.7922 67.8051 69.5838C68.1801 69.1672 69.701 66.3338 72.3676 61.0838C75.076 55.7922 76.9301 52.063 77.9301 49.8963C78.7218 48.1047 80.1385 45.5005 82.1801 42.0838C84.2218 38.6255 85.5135 36.3755 86.0551 35.3338C87.1801 33.1672 89.9301 29.0422 94.3051 22.9588C95.5551 21.2505 96.6385 19.7922 97.5551 18.5838C100.138 15.3338 101.763 13.7297 102.43 13.7713C103.347 13.813 102.659 17.1463 100.368 23.7713C97.6176 31.6463 95.576 39.0838 94.2426 46.0838C93.7843 48.2922 93.0343 51.563 91.9926 55.8963C90.9093 60.563 90.44 61.7083 90.1483 66.5C89.8566 71.25 90.0441 74.6042 90.7108 76.5625C92.1275 80.7292 94.3566 83.6458 97.3983 85.3125C100.482 86.9792 104.417 94.75 108 93.5C111.625 92.2083 112.542 99.375 115.5 95.5C115.792 95.125 118.708 96.9167 119 96.5C122.375 91.7917 122.958 98.9167 123 96.5C123.042 95.2083 121.167 95.1938 120 95.3605C119.167 95.4855 114.167 91.125 113 93.5C111.833 96 109.333 88.125 106.5 91C103.708 93.875 116.5 93 115.5 92.5C113.748 91.6242 109 88 104 81C102.547 78.9657 101.18 73.0213 102.93 62.6463C104.722 52.2713 107.055 42.6047 109.93 33.6463C112.43 24.313 113.826 19.3338 114.118 18.7088L114.618 17.0838C116.826 9.8755 117.951 5.938 117.993 5.27133C117.993 4.938 117.784 4.3755 117.368 3.58383Z" fill="#34D399"/>
<path d="M122.368 3.58383C120.493 0.0421627 117.701 -0.874504 113.993 0.833829C112.784 1.3755 110.763 2.97966 107.93 5.64633C105.138 8.27133 102.93 10.6463 101.305 12.7713C95.7635 19.8963 91.5551 25.7713 88.6801 30.3963C86.1385 34.3963 84.5551 36.6672 83.9301 37.2088C83.4718 37.6255 82.9926 37.5213 82.4926 36.8963C82.1176 36.438 81.9093 35.688 81.8676 34.6463C81.826 33.6047 81.8885 31.2922 82.0551 27.7088C82.3468 22.1672 82.4301 17.063 82.3051 12.3963C82.1801 7.72966 81.8885 4.83383 81.4301 3.70883C80.7218 2.1255 79.6593 1.22966 78.2426 1.02133C76.8676 0.771329 75.2635 1.2505 73.4301 2.45883C72.0135 3.41716 68.7218 4.60466 63.5551 6.02133C58.4301 7.39633 52.3885 8.7505 45.4301 10.0838C34.8051 12.1672 26.701 14.5005 21.1176 17.0838C15.5343 19.6255 11.8051 22.7297 9.93015 26.3963C8.05515 30.1463 7.63848 33.6463 8.68015 36.8963C9.76348 40.1463 12.1801 42.688 15.9301 44.5213C17.5551 45.313 19.1176 45.7505 20.6176 45.8338C22.7843 46.0005 24.0968 45.5422 24.5551 44.4588C25.0968 43.2088 24.1385 41.8755 21.6801 40.4588C18.8468 38.8338 17.5968 36.6047 17.9301 33.7713C18.3051 30.938 20.2218 27.8547 23.6801 24.5213C25.9301 22.313 29.8468 20.1463 35.4301 18.0213C41.0135 15.8963 47.3468 14.1463 54.4301 12.7713C58.3051 12.063 61.6385 11.2297 64.4301 10.2713C67.5968 9.14633 69.2843 8.85466 69.4926 9.39633C69.7426 9.89633 68.9301 12.1255 67.0551 16.0838C66.0135 18.2088 62.8676 26.0422 57.6176 39.5838C52.3676 53.0838 48.701 61.5838 46.6176 65.0838C44.951 67.9588 43.2843 70.5422 41.6176 72.8338C39.951 75.1255 38.8676 76.3547 38.3676 76.5213C37.6593 76.7713 36.326 77.8755 34.3676 79.8338C28.576 85.5005 23.5343 86.438 19.2426 82.6463C16.9926 80.688 15.6593 78.3755 15.2426 75.7088C14.826 73.0005 15.3468 70.5005 16.8051 68.2088C18.3051 65.9172 20.4926 64.3338 23.3676 63.4588C25.7426 62.7505 27.6593 62.7922 29.1176 63.5838C30.6176 64.3755 31.3468 65.7088 31.3051 67.5838C31.3051 69.4588 30.4926 71.4172 28.8676 73.4588C28.0343 74.5005 27.5135 75.438 27.3051 76.2713C26.9301 77.6047 27.2843 78.3547 28.3676 78.5213C29.7843 78.7713 31.4718 77.8338 33.4301 75.7088C34.0968 74.9588 34.9093 74.5838 35.8676 74.5838C36.826 74.5838 37.4301 74.2713 37.6801 73.6463C37.9301 72.9797 38.0551 71.3755 38.0551 68.8338C38.0551 65.9172 37.201 63.1672 35.4926 60.5838C33.7843 58.0005 31.7843 56.4172 29.4926 55.8338C27.2426 55.2505 23.9093 55.4588 19.4926 56.4588C15.1176 57.4588 12.1176 58.6672 10.4926 60.0838C7.53431 62.6672 5.76348 66.3547 5.18015 71.1463C4.59681 75.938 5.43015 80.0005 7.68015 83.3338C8.88848 85.0838 11.0968 86.8755 14.3051 88.7088C17.5551 90.5422 20.1593 91.4797 22.1176 91.5213C27.9926 91.6463 33.1801 89.9797 37.6801 86.5213C42.1801 83.0213 46.5135 77.2922 50.6801 69.3338C54.8468 61.3755 59.326 50.2922 64.1176 36.0838C65.9926 30.5422 67.3676 26.7297 68.2426 24.6463C69.1176 22.5213 69.7843 21.4588 70.2426 21.4588C70.9926 21.4588 70.9301 24.813 70.0551 31.5213C69.2218 38.2297 68.2843 45.4797 67.2426 53.2713C66.2426 61.0213 65.9718 65.7713 66.4301 67.5213C66.8885 69.188 67.826 70.2505 69.2426 70.7088C70.6593 71.1672 71.8468 70.7922 72.8051 69.5838C73.1801 69.1672 74.701 66.3338 77.3676 61.0838C80.076 55.7922 81.9301 52.063 82.9301 49.8963C83.7218 48.1047 85.1385 45.5005 87.1801 42.0838C89.2218 38.6255 90.5135 36.3755 91.0551 35.3338C92.1801 33.1672 94.9301 29.0422 99.3051 22.9588C100.555 21.2505 101.638 19.7922 102.555 18.5838C105.138 15.3338 106.763 13.7297 107.43 13.7713C108.347 13.813 107.659 17.1463 105.368 23.7713C102.618 31.6463 100.576 39.0838 99.2426 46.0838C98.7843 48.2922 98.0343 51.563 96.9926 55.8963C95.9093 60.563 95.44 61.7083 95.1483 66.5C94.8566 71.25 95.0441 74.6042 95.7108 76.5625C97.1275 80.7292 99.3566 83.6458 102.398 85.3125C105.482 86.9792 109.417 94.75 113 93.5C116.625 92.2083 117.542 99.375 120.5 95.5C120.792 95.125 123.708 96.9167 124 96.5C127.375 91.7917 127.958 98.9167 128 96.5C128.042 95.2083 126.167 95.1938 125 95.3605C124.167 95.4855 119.167 91.125 118 93.5C116.833 96 114.333 88.125 111.5 91C108.708 93.875 121.5 93 120.5 92.5C118.748 91.6242 114 88 109 81C107.547 78.9657 106.18 73.0213 107.93 62.6463C109.722 52.2713 112.055 42.6047 114.93 33.6463C117.43 24.313 118.826 19.3338 119.118 18.7088L119.618 17.0838C121.826 9.8755 122.951 5.938 122.993 5.27133C122.993 4.938 122.784 4.3755 122.368 3.58383Z" fill="#122650"/>
<path d="M101.65 70.4031C101.904 71.3603 102.107 72.6403 102.291 73.6267C102.349 73.9355 102.097 73.8577 102.131 74.0764C102.2 74.5053 102.445 74.835 102.524 75.2608C102.551 75.4031 102.172 75.3779 102.208 75.5259C102.409 76.3389 102.853 77.005 103.223 77.7632C105.068 81.5334 108.26 84.6594 111.961 87.2353C113.206 88.1064 114.6 89.2555 116.121 89.878C116.287 89.9446 116.326 89.6335 116.367 89.6272C117.007 89.5332 116.583 89.9857 116.863 90.2122C117.961 91.1021 119.501 91.8135 120.782 92.208C121.336 92.3781 121.016 91.6191 121.434 92.1396C121.464 92.1752 121.211 92.4119 121.347 92.5016C121.655 92.7051 122.323 92.9013 122.583 93.0242C123.082 93.263 123.17 93.2916 123.666 93.4734C124.36 93.7298 125.079 94.1394 125.821 94.3065C125.979 94.3411 125.876 93.9702 126.136 93.9972C126.396 94.0248 127.039 94.2565 127.239 94.3969C127.439 94.5378 127.271 94.7497 127.293 94.8171C127.475 95.3846 128.448 94.9686 128.552 94.9809C130.451 95.2378 131.824 95.9953 133.581 96.4178C134.943 96.7429 136.27 96.9051 137.532 97.1829C139.011 97.5094 140.296 97.928 141.713 98.1454C141.865 98.1691 141.752 97.7665 141.938 97.7945C143.895 98.09 145.974 98.4488 147.868 98.962C148.063 99.0144 147.763 99.3082 147.955 99.3802C149.129 99.8158 151.03 100.704 151.94 99.3534C152.79 99.5066 153.748 99.6666 154.469 100.031C154.929 100.265 154.427 100.578 155.033 100.482C155.17 100.461 155.027 100.13 155.229 100.122C156.081 100.088 156.999 100.274 157.86 100.183C158.035 100.163 158.012 99.8772 158.065 99.8304C158.507 99.4533 159.143 100.189 159.275 100.249C160.345 100.703 161.168 100.616 162.209 100.693C162.451 100.711 162.189 100.313 162.423 100.317C163.631 100.341 164.903 100.446 166.089 100.675C166.346 100.726 166.091 101.038 166.213 101.079C166.753 101.256 166.904 100.65 167.424 100.806C167.534 100.838 167.459 101.113 167.478 101.144C167.775 101.636 168.082 100.971 168.164 100.96C169.209 100.799 169.85 101.531 170.872 101.464C170.994 101.456 170.731 101.096 171.074 101.093C173.399 101.071 175.694 101.213 177.962 101.515C178.312 101.561 178.059 101.822 178.081 101.855C178.437 102.366 178.676 101.687 178.791 101.663C179.694 101.484 180.561 102.057 181.149 101.246C184.892 101.527 188.736 101.006 192.484 101.615C192.533 101.622 192.457 101.959 192.553 101.972C193.714 102.123 193.477 101.609 194.22 100.945C194.406 100.779 195.023 101.526 195.078 101.58C195.276 101.78 195.098 102.286 195.163 102.324C195.703 102.619 195.555 100.975 196.264 100.946C196.286 100.948 196.207 101.255 196.266 101.282C196.451 101.37 196.626 101.242 196.807 101.339C197.223 101.563 197.403 102.358 198.005 101.864C198.081 101.8 197.919 100.871 198.544 100.887C198.793 100.894 199.895 100.825 200.208 100.87C200.521 100.914 200.324 101.226 200.346 101.238C201.203 101.594 200.894 101.775 201.346 102.342C201.798 102.907 201.607 101.513 201.77 101.347C201.933 101.182 202.567 101.477 202.726 101.582C202.884 101.688 202.706 101.89 202.844 101.947C203.765 102.319 203.198 101.23 203.48 100.991C204.148 100.425 204.745 101.43 205.374 101.494C205.545 101.511 205.392 101.283 205.542 101.252C206.133 101.13 206.513 101.431 207.175 101.089C207.284 101.034 207.793 100.373 208.181 100.807C208.236 100.869 208.11 101.138 208.37 101.178C208.759 101.239 209.454 101.247 209.862 101.131C210.163 101.045 209.782 100.645 210.176 100.749C210.351 100.796 210.052 101.068 210.38 101.135C210.706 101.202 211.524 101.131 211.836 101.098C212.147 101.066 211.952 100.756 211.975 100.732C212.118 100.596 212.705 100.394 212.758 100.39C215.363 100.148 217.836 100.485 220.41 100.065C220.612 100.033 220.445 99.7052 220.475 99.6968C221.158 99.4894 220.693 100.445 221.209 100.702C221.072 100.018 221.379 100.116 221.848 99.9946C222.077 99.9354 221.925 99.6804 221.943 99.651C222.248 99.2124 222.538 99.7132 222.61 99.8144C222.876 100.187 223.079 99.6965 223.26 99.9448C223.441 100.191 223.121 100.614 223.584 100.563C223.69 100.304 223.283 99.6925 223.624 99.5533C224.907 99.0284 227.449 99.2757 228.535 99.2102C229.615 99.1465 229.969 99.0608 230.594 99.0814C231.727 99.1175 231.265 98.6853 231.933 98.3879C232.604 98.0896 232.401 99.304 232.53 99.5453C232.657 99.7866 232.735 99.5142 232.873 99.6389C233.012 99.7636 232.767 99.966 233.06 99.9849C233.354 100.004 234.089 99.4623 234.16 99.186C234.31 98.6007 233.886 98.0554 234.672 98.1715C234.717 98.1786 234.612 98.5045 234.783 98.5158C236.146 98.5949 237.54 98.4391 238.91 98.48C239.099 98.4861 238.977 98.8504 239.087 98.8578C240.225 98.9368 239.752 98.4083 240.274 97.6877C240.249 98.5609 240.649 99.0423 241.489 98.9383C241.994 98.8758 241.858 98.5134 242.15 98.2072C242.237 98.115 242.629 98.3245 242.67 98.1401C242.808 97.5374 242.386 96.9394 243.285 97.0801C243.325 97.0872 243.246 97.4178 243.38 97.4192C244.246 97.4301 244.267 96.8158 245.177 96.6177C245.89 96.4625 247.226 96.6501 248.061 96.5926C248.182 97.5554 248.922 97.2262 249.138 96.5194C249.67 96.4711 250.235 96.3514 250.759 96.3684C250.94 96.374 250.865 96.6688 250.891 96.6956C251.301 97.1171 251.437 96.4393 251.548 96.3973C252.751 95.97 253.837 96.3062 254.954 95.6488C254.994 95.6252 254.96 94.9486 255.352 95.3865C255.378 95.4169 255.031 95.7801 255.595 95.7179C256.156 95.6562 257.278 95.8484 257.998 95.4191C258.172 95.3157 258.557 94.7014 259.002 95.0637C259.061 95.1131 259.036 95.3127 259.126 95.4074C259.414 95.7086 259.436 95.0155 259.803 95.5429C260.171 96.0703 260.816 96.4061 261.532 95.8858C261.555 95.8703 261.653 95.3075 261.899 95.276C262.293 95.2264 262.867 95.2464 263.276 95.1754C263.472 95.1413 263.292 94.8312 263.325 94.8195C264.611 94.4167 265.6 94.5543 267.04 94.4408C267.303 94.4209 267.961 93.8446 268.52 94.1148C269.134 94.4102 268.852 96.1299 270.044 95.5245C270.526 95.2812 270.806 93.1124 271.907 94.0158C273.63 93.4378 275.38 93.6834 277.088 92.9784C277.165 92.9471 277.309 92.3276 277.497 92.3008C277.776 92.2621 277.978 92.5015 278.18 92.4822C279.024 92.4082 279.741 92.036 280.549 91.9195C280.855 91.8745 280.802 92.1715 281.168 92.1177C281.534 92.0636 281.706 91.6531 282.232 91.7344C282.63 91.7969 283.146 92.4694 283.657 92.4601C283.534 91.7224 283.876 91.6718 284.442 91.3601C284.551 91.2998 284.377 91.0687 284.425 91.027C284.623 90.8517 284.871 91.0229 285.055 90.8379C285.1 90.7934 285.053 90.5423 285.087 90.4918C285.373 90.0524 286.076 90.499 286.197 90.5769C286.656 90.8731 286.772 90.5116 287.096 90.5994C287.421 90.6872 287.016 90.9586 287.379 90.9788C288.131 91.0202 289.043 90.7946 289.774 90.6584C290.065 90.6025 289.799 90.3087 289.839 90.2929C290.422 90.0864 291.103 90.3172 291.3 89.5836C292.07 91.2176 291.628 89.3427 292.559 89.5093C292.632 89.5231 292.887 90.3182 292.651 90.4914C292.415 90.6645 291.968 90.4917 291.645 90.7519C291.569 90.8132 291.235 91.6756 291.177 91.7354C290.727 92.2033 290.405 91.0026 290.364 90.9415C289.904 90.2848 289.473 91.2271 289.327 91.3156C288.66 91.7211 288.015 91.6726 287.451 91.9781C287.081 92.1765 287.201 92.9812 286.888 93.0181C285.837 93.1423 285.254 92.1014 284.467 93.2566C284.298 93.5031 284.676 94.3347 283.792 93.7948C283.736 93.7608 283.059 93.2412 282.814 93.6998C282.783 93.7577 282.834 94.0116 282.784 94.0432C282.454 94.25 282.177 94.0931 281.807 94.2643C281.438 94.4355 280.998 94.669 280.539 94.6666C280.262 94.6655 279.831 94.2561 279.681 94.1641C279.259 93.8976 278.975 94.518 278.677 94.1547C278.376 93.7897 278.699 93.09 278.062 92.9367C278.164 93.6019 278.24 94.2898 278.329 94.9613C277.04 95.177 275.705 95.2008 274.405 95.4657C274.244 95.4992 274.474 95.8251 274.302 95.8702C273.579 96.0589 272.894 95.9196 272.153 96.1551C271.58 96.3388 271.003 96.8289 270.407 97.0309C269.9 96.3384 269.037 96.7533 268.366 96.797C268.131 96.8126 268.112 96.6074 267.937 96.5694C267.276 96.4307 267.681 97.0512 267.528 97.186C266.866 97.7619 266.546 96.2551 265.685 96.4385C265.639 96.4477 265.213 97.3509 265.144 97.4142C264.707 97.8248 265.016 97.1461 264.698 97.1375C264.119 97.1215 263.697 96.9926 263.079 97.3375C262.899 97.4391 262.522 98.019 262.087 97.6888C262.03 97.6457 262.013 97.3736 261.971 97.3643C261.217 97.2183 261.335 98.0623 260.974 98.4126C260.612 98.7629 259.892 98.282 259.738 98.1347C259.336 97.7545 259.964 97.909 259.976 97.8635C260.107 97.3239 259.664 97.4839 259.309 97.4963C259.128 96.6791 258.649 96.8054 258.941 97.5124C258.974 97.5895 259.233 97.4697 259.309 97.4963C259.13 98.3545 258.612 98.5426 257.899 97.8786C257.562 97.5676 257.763 97.1129 256.935 97.3964C256.559 97.5245 256.796 98.07 256.478 98.2776C255.752 98.7514 254.66 98.3746 253.872 98.578C253.586 98.6518 253.916 98.9209 253.722 98.9821C253.207 99.1454 252.708 98.9806 252.198 99.178C252.152 99.1963 252.317 99.5052 252.153 99.5336C250.911 99.7546 249.807 99.7006 248.503 99.879C247.867 99.9664 246.757 100.304 246.097 100.358C244.951 100.454 243.495 100.165 242.546 100.407C241.927 100.564 242.108 100.872 241.867 101.13C241.403 101.63 240.384 100.975 240.246 100.87C240.242 100.867 240.771 100.721 240.462 100.59C240.25 100.261 240.252 100.868 240.246 100.87C240.158 100.803 239.063 100.867 238.851 100.956C238.737 101.005 238.842 101.307 238.782 101.327C237.352 101.787 235.898 102.044 234.408 102.072C234.381 102.069 234.38 101.717 234.318 101.714C233.447 101.66 232.953 102.147 232.281 102.479C231.608 102.811 231.046 102.789 230.564 102.238C230.035 102.373 229.237 102.194 228.778 102.081C228.319 101.969 228.33 102.651 228.292 102.669C227.126 103.226 226.386 102.912 225.131 102.978C224.535 103.008 223.37 103.223 222.738 103.358C222.236 103.467 221.928 103.336 221.457 103.483C221.394 103.502 221.488 103.798 221.469 103.811C220.973 104.222 221.159 103.46 221.037 103.339C220.596 102.897 220.329 102.665 219.674 102.952C219.523 103.017 219.165 104.12 218.887 104.207C218.525 104.319 218.63 103.926 218.253 104.052C218.221 104.063 218.248 104.297 218.009 104.307C216.901 104.359 215.69 104.323 214.555 104.438C214.4 104.453 214.629 104.81 214.405 104.837C213.365 104.965 212.178 105.043 211.123 104.944C210.864 104.919 211.005 104.646 210.944 104.573C210.568 104.129 210.134 104.845 210.055 104.864C208.175 105.326 206.688 104.804 204.796 105.213C204.697 105.237 203.913 106.017 203.513 105.41C203.485 105.37 203.088 104.749 202.793 105.205C202.775 105.234 203.018 105.552 202.624 105.54C202.23 105.528 201.611 105.783 201.056 105.447C200.88 105.341 200.447 104.722 199.968 105.257C199.938 105.294 199.213 106.486 198.899 105.703C198.848 105.573 198.855 104.729 198.276 105.188C198.166 105.277 198.382 105.456 198.086 105.587C197.632 105.788 197.012 105.589 196.462 105.987C196.367 106.058 195.955 106.648 195.593 106.227C195.537 106.161 195.628 105.875 195.445 105.851C194.573 105.733 193.676 105.953 192.798 105.786C192.488 105.727 192.631 105.267 192.306 105.155C191.982 105.043 191.334 104.944 191.006 105.161C190.678 105.378 191.062 106.094 190.563 106.165C188.42 106.474 186.176 106.088 183.997 106.044C183.673 106.037 183.943 106.295 183.466 106.303C181.725 106.338 178.65 106.573 177.115 105.999C175.893 105.541 177.441 105.225 176.507 105.033C176.058 104.941 175.558 105.776 175.448 105.801C174.379 106.052 173.667 105.663 172.702 105.752C172.499 105.771 172.688 106.118 172.516 106.13C171.927 106.174 171.317 106.003 170.76 106.013C170.51 106.018 170.548 106.28 170.319 106.252C169.772 106.188 169.292 106.061 168.772 105.795C168.725 105.771 169.063 105.459 168.662 105.431C168.012 105.387 167.221 105.11 166.47 105.324C166.248 105.388 166.209 105.984 165.759 105.549C165.664 105.458 165.833 104.749 165.233 105.338C165.133 105.436 164.134 106.219 163.7 105.653C163.586 105.505 163.309 104.901 163.035 104.976C162.998 104.989 163.124 105.318 162.899 105.335C162.107 105.391 161.291 105.303 160.487 105.346C160.273 105.358 160.566 105.712 160.246 105.72C159.369 105.741 158.294 105.572 157.417 105.393C157.098 105.327 157.344 105.072 157.323 105.04C156.989 104.524 156.711 105.158 156.583 105.186C155.789 105.346 155.233 104.984 154.521 104.997C154.325 104.999 154.432 105.324 154.391 105.348C153.963 105.58 154.317 105.05 154.07 104.963C153.378 104.718 152.593 104.661 151.882 104.622C151.612 104.608 151.875 105.002 151.631 104.985C150.184 104.886 148.712 104.67 147.376 104.289C147.125 104.216 147.324 103.961 147.279 103.89C146.972 103.398 146.355 103.927 146.223 103.967C145.624 104.15 145.455 103.876 144.928 103.845C142.359 103.698 139.493 103.036 137.123 102.453C134.16 101.72 131.863 100.91 129.047 100.219C128.869 100.175 128.949 100.583 128.794 100.549C126.788 100.092 124.776 99.3252 122.822 98.7653C122.658 98.7174 122.783 99.1334 122.504 99.0635C121.931 98.9216 121.24 98.6532 120.733 98.3437C120.486 98.1934 120.948 98.0433 120.698 97.898C120.118 97.5591 119.474 97.2813 118.836 97.0833C118.563 96.9995 118.825 97.4952 118.481 97.3595C116.048 96.4 113.78 95.4073 111.636 93.674C111.494 93.5569 111.718 92.8426 111.322 92.7762C111.196 92.938 111.077 93.1458 110.957 93.3276C107.617 91.524 104.606 89.0194 101.916 86.1416C101.801 86.018 101.721 86.4985 101.495 86.2584C100.207 84.8812 98.941 83.4598 98.2123 81.5942C98.1415 81.41 98.7689 81.1315 98.3927 80.7114C98.3254 80.6425 97.8203 79.9506 97.5868 79.8234C97.5527 79.8071 97.3478 80.0994 97.2065 79.857C96.3917 78.4454 95.7887 76.8266 95.4939 75.2287C95.4472 74.9708 95.8534 75.1339 95.8238 74.951C95.6133 73.6605 95.0612 72.3485 95.1884 71.0881C95.2801 70.249 95.9056 70.4719 96.4296 69.9899C96.5029 69.9227 96.4675 69.4384 96.8013 69.3841C97.638 69.2492 98.5798 69.3827 99.469 69.2106C99.6591 69.1751 99.4052 68.6221 99.8996 68.9216C99.932 68.9434 100.124 69.3353 100.293 69.4151C100.41 69.4711 100.737 69.3145 100.892 69.4351C101.046 69.5538 100.779 69.7365 100.972 69.9374C101.169 70.1349 101.538 69.9865 101.65 70.4031ZM226.719 101.576C226.278 101.293 226.341 102.49 226.752 102.159C226.772 102.142 226.741 101.59 226.719 101.576ZM275.553 94.3099C274.932 93.8869 274.71 94.7155 275.155 95.049C275.6 95.3819 275.743 94.4379 275.553 94.3099ZM280.91 92.9198C280.222 92.6271 280.441 94.3123 281.033 93.8508C281.067 93.8246 280.951 92.9367 280.91 92.9198ZM96.8753 71.8493C96.8893 71.8408 96.8435 71.5031 96.8272 71.4976C96.42 71.3818 96.5133 72.0681 96.8753 71.8493ZM286.226 91.4612C285.99 91.274 285.489 91.6427 285.783 91.8757C286.019 92.0632 286.52 91.694 286.226 91.4612ZM205.427 102.076C205.42 102.058 205.185 102.057 205.196 102.157C205.232 102.48 205.551 102.368 205.427 102.076ZM295.346 89.5791C293.979 89.8011 292.877 88.5987 294.378 88.4467C294.65 88.4189 293.896 89.0042 294.261 89.057C294.929 89.1523 295.159 88.2046 295.89 88.5321C296.023 88.5923 295.425 89.5695 295.344 89.5815C295.345 89.5807 295.345 89.5799 295.346 89.5791ZM226.336 100.171C226.326 100.156 226 100.175 225.993 100.191C225.856 100.587 226.515 100.55 226.336 100.171ZM191.622 101.968C191.603 101.935 190.848 101.925 190.825 101.956C190.448 102.588 191.976 102.611 191.622 101.968ZM248.078 96.6164C248.383 96.1874 248.788 96.0843 249.136 96.5192C248.783 96.5439 248.439 96.589 248.078 96.6164Z" fill="#122650"/>
</svg>
