<svg width="18" height="18" viewBox="0 0 18 18" fill="none" xmlns="http://www.w3.org/2000/svg">
<path d="M1 16.5859H17M1 16.5859V12.5859L9 4.58594L11.869 1.71694L11.87 1.71594C12.265 1.32094 12.463 1.12294 12.691 1.04894C12.8918 0.983687 13.1082 0.983687 13.309 1.04894C13.537 1.12294 13.734 1.32094 14.129 1.71494L15.869 3.45494C16.265 3.85094 16.463 4.04894 16.537 4.27694C16.6023 4.47777 16.6023 4.69411 16.537 4.89494C16.463 5.12294 16.265 5.32094 15.869 5.71694L13 8.58694L9 4.58694M1 16.5859H5L13 8.58594" stroke="#111827" stroke-width="2" stroke-linecap="round" stroke-linejoin="round"/>
</svg>
