<svg width="96" height="35" viewBox="0 0 96 35" fill="none" xmlns="http://www.w3.org/2000/svg">
<path d="M47.6544 19.2826L42.6242 21.4588C42.6598 21.8275 42.755 22.208 42.9096 22.6004C43.076 22.9929 43.3198 23.3199 43.6409 23.5815C43.9739 23.8431 44.402 23.9739 44.9252 23.9739C45.4128 23.9739 45.8885 23.8491 46.3522 23.5994C46.8279 23.3496 47.2679 23.0702 47.6722 22.761L47.8685 22.7967L48.1003 23.1177C47.7317 23.4626 47.3274 23.7956 46.8874 24.1166C46.4593 24.4258 46.0014 24.6815 45.5139 24.8837C45.0382 25.0858 44.5447 25.1869 44.0333 25.1869C43.4387 25.1869 42.9452 25.062 42.5528 24.8123C42.1723 24.5626 41.875 24.2356 41.6609 23.8312C41.4469 23.415 41.2923 22.9572 41.1971 22.4577C41.1139 21.9464 41.0723 21.441 41.0723 20.9415C41.0723 20.4183 41.1377 19.9069 41.2685 19.4075C41.3993 18.908 41.6371 18.4561 41.982 18.0518C42.422 17.5405 42.9452 17.148 43.5517 16.8745C44.1701 16.5891 44.8182 16.4464 45.496 16.4464C46.269 16.4464 46.8814 16.6842 47.3333 17.1599C47.7971 17.6356 48.029 18.2183 48.029 18.908C48.029 19.015 47.9874 19.0923 47.9041 19.1399C47.8328 19.1875 47.7495 19.235 47.6544 19.2826ZM43.3733 17.9091C43.0285 18.2778 42.8025 18.6642 42.6955 19.0686C42.6004 19.4729 42.5528 19.895 42.5528 20.335C42.5528 20.3826 42.5528 20.4361 42.5528 20.4956C42.5647 20.5431 42.5766 20.5967 42.5885 20.6561L42.6598 20.7275L46.2631 19.3005C46.3225 19.2767 46.376 19.2291 46.4236 19.1578C46.4712 19.0864 46.4949 18.9794 46.4949 18.8367C46.4949 18.5869 46.4295 18.3313 46.2987 18.0696C46.1679 17.808 45.9776 17.594 45.7279 17.4275C45.4901 17.2491 45.2047 17.1599 44.8717 17.1599C44.5744 17.1599 44.295 17.2253 44.0333 17.3561C43.7836 17.4869 43.5636 17.6713 43.3733 17.9091Z" fill="#122650"/>
<path d="M55.2874 25.0442C55.2874 24.8539 55.2993 24.5031 55.3231 23.9918C55.3588 23.4804 55.3885 22.8858 55.4123 22.208C55.448 21.5302 55.4658 20.8523 55.4658 20.1745C55.4658 19.4372 55.3707 18.8664 55.1804 18.4621C54.9901 18.0459 54.5977 17.8378 54.0031 17.8378C53.7296 17.8378 53.4382 17.8972 53.1291 18.0161C52.8318 18.1232 52.5701 18.2421 52.3442 18.3729C52.1183 18.5037 51.9755 18.5869 51.9161 18.6226C51.8923 19.2648 51.8685 19.9069 51.8447 20.5491C51.8328 21.1913 51.8269 21.8394 51.8269 22.4934C51.8269 22.8621 51.8269 23.2367 51.8269 23.6172C51.8388 23.9858 51.8507 24.3545 51.8626 24.7231L50.6674 25.1512L50.4177 25.0085C50.4296 24.188 50.4534 23.3675 50.4891 22.5469C50.5247 21.7264 50.5426 20.9118 50.5426 20.1032C50.5426 19.6513 50.5307 19.241 50.5069 18.8723C50.495 18.4918 50.4415 18.1886 50.3464 17.9626C50.2512 17.7367 50.0788 17.6237 49.8291 17.6237C49.6864 17.6237 49.4783 17.6832 49.2048 17.8021C48.9312 17.9091 48.6934 18.0221 48.4912 18.141L48.2772 17.8021C48.6339 17.5167 49.0204 17.2432 49.4366 16.9815C49.8529 16.7199 50.281 16.5832 50.721 16.5713C51.1729 16.5713 51.4701 16.708 51.6128 16.9815C51.7556 17.2551 51.8269 17.5583 51.8269 17.8913L51.9696 17.9983C52.4334 17.7486 52.9269 17.4869 53.4501 17.2134C53.9734 16.928 54.5026 16.7853 55.0377 16.7853C55.3707 16.7853 55.6799 16.8686 55.9653 17.0351C56.2507 17.2015 56.4766 17.4275 56.6431 17.7129L56.9285 17.7486C57.1544 17.6296 57.422 17.4929 57.7312 17.3383C58.0404 17.1837 58.3734 17.0529 58.7301 16.9459C59.0869 16.827 59.4377 16.7675 59.7825 16.7675C60.0442 16.7675 60.2939 16.8032 60.5317 16.8745C60.7815 16.934 61.0015 17.0588 61.1917 17.2491C61.4296 17.4869 61.5485 17.8734 61.5485 18.4086C61.5485 18.9437 61.5485 19.6572 61.5485 20.5491V22.8858C61.5485 23.0404 61.5663 23.2129 61.602 23.4031C61.6496 23.5815 61.7388 23.7361 61.8696 23.8669C62.0004 23.9858 62.1966 24.0453 62.4582 24.0453C62.6485 24.0453 62.8685 23.968 63.1182 23.8134C63.3798 23.6469 63.6177 23.4864 63.8317 23.3318H64.0814L64.2063 23.7064C63.9447 23.9442 63.6593 24.188 63.3501 24.4377C63.0409 24.6875 62.7198 24.8896 62.3869 25.0442C62.0539 25.2107 61.709 25.2939 61.3523 25.2939C60.9361 25.2939 60.6269 25.1512 60.4247 24.8658C60.2344 24.5685 60.1393 24.2534 60.1393 23.9204C60.1393 23.8491 60.1452 23.6767 60.1571 23.4031C60.169 23.1296 60.175 22.8085 60.175 22.4399C60.1869 22.0594 60.1988 21.6729 60.2107 21.2804C60.2225 20.8761 60.2285 20.5075 60.2285 20.1745C60.2285 19.4372 60.1215 18.8664 59.9074 18.4621C59.6934 18.0459 59.295 17.8378 58.7123 17.8378C58.2723 17.8378 57.8917 17.9032 57.5707 18.034C57.2496 18.1648 56.9642 18.3015 56.7144 18.4442C56.7026 18.8486 56.6907 19.2588 56.6788 19.675C56.6788 20.0794 56.6788 20.4896 56.6788 20.9059C56.6788 22.1664 56.7144 23.415 56.7858 24.6518L55.4658 25.1512L55.2874 25.0442Z" fill="#122650"/>
<path d="M68.3455 25.2226C67.525 25.2226 66.865 25.0442 66.3655 24.6875C65.8779 24.3188 65.5212 23.8491 65.2952 23.2783C65.0693 22.7075 64.9325 22.1069 64.885 21.4767C64.885 20.8583 64.9385 20.2399 65.0455 19.6215C65.1644 19.0032 65.4379 18.4621 65.8661 17.9983C66.2823 17.5345 66.7877 17.2015 67.3823 16.9994C67.9887 16.7853 68.6012 16.6783 69.2196 16.6783C70.0995 16.6783 70.7952 16.8745 71.3066 17.2669C71.8179 17.6594 72.1866 18.1648 72.4125 18.7832C72.6385 19.4015 72.7514 20.0437 72.7514 20.7096C72.7514 21.2923 72.6741 21.8631 72.5195 22.4221C72.3768 22.981 72.1093 23.4804 71.7168 23.9204C71.3006 24.3961 70.7893 24.735 70.1828 24.9372C69.5882 25.1275 68.9758 25.2226 68.3455 25.2226ZM66.5617 19.3361C66.5142 19.5621 66.4785 19.788 66.4547 20.014C66.4309 20.2399 66.419 20.4718 66.419 20.7096C66.419 21.0783 66.4547 21.4826 66.5261 21.9226C66.5974 22.3626 66.7163 22.7788 66.8828 23.1712C67.0612 23.5518 67.305 23.8669 67.6142 24.1166C67.9352 24.3664 68.3396 24.4912 68.8271 24.4912C69.3147 24.4912 69.7071 24.3842 70.0044 24.1702C70.3136 23.9561 70.5514 23.6766 70.7179 23.3318C70.8844 22.9869 70.9974 22.6123 71.0568 22.208C71.1282 21.8037 71.1639 21.4172 71.1639 21.0486C71.1639 20.6799 71.1341 20.2875 71.0747 19.8713C71.0152 19.4432 70.9022 19.0388 70.7358 18.6583C70.5812 18.2778 70.3433 17.9686 70.0223 17.7307C69.7131 17.4929 69.3087 17.374 68.8093 17.374C68.3336 17.374 67.8817 17.5345 67.4536 17.8556C67.0255 18.1767 66.7282 18.6702 66.5617 19.3361Z" fill="#122650"/>
<path d="M79.8885 18.9259L79.6744 18.8367C79.6269 18.5869 79.5317 18.3551 79.389 18.141C79.2463 17.9151 79.0263 17.8021 78.729 17.8021C78.3604 17.8021 78.0631 17.9269 77.8371 18.1767C77.6112 18.4264 77.4507 18.6702 77.3555 18.908C77.2723 19.0983 77.2247 19.3718 77.2128 19.7286C77.2009 20.0853 77.2009 20.4659 77.2128 20.8702C77.2247 21.2626 77.2307 21.6194 77.2307 21.9404C77.2307 22.8323 77.2485 23.7361 77.2842 24.6518L76.0355 25.0264L75.768 24.8658C75.8274 24.2356 75.875 23.5518 75.9107 22.8145C75.9582 22.0772 75.982 21.3518 75.982 20.6383C75.982 20.1745 75.9761 19.7107 75.9642 19.2469C75.9523 18.7832 75.8928 18.3967 75.7858 18.0875C75.6788 17.7783 75.4885 17.6237 75.215 17.6237C75.0128 17.6237 74.7869 17.6832 74.5372 17.8021C74.2874 17.921 74.0496 18.0459 73.8236 18.1767L73.6096 17.8734C73.8474 17.6832 74.1031 17.4869 74.3766 17.2848C74.662 17.0826 74.9474 16.9102 75.2328 16.7675C75.5182 16.6129 75.7799 16.5356 76.0177 16.5356C76.422 16.5356 76.7253 16.6545 76.9274 16.8924C77.1296 17.1302 77.2544 17.4394 77.302 17.8199L77.4804 17.8913C77.6588 17.7248 77.855 17.5464 78.069 17.3561C78.295 17.154 78.5269 16.9875 78.7647 16.8567C79.0025 16.714 79.2285 16.6426 79.4425 16.6426C80.2869 16.6426 80.7566 17.1124 80.8517 18.0518L79.8885 18.9259Z" fill="#122650"/>
<path d="M87.8979 17.2848L88.8433 16.7318L88.9325 16.821C88.8612 18.1172 88.8255 19.4134 88.8255 20.7096C88.8255 20.9831 88.8136 21.3102 88.7898 21.6907C88.7779 22.0713 88.7839 22.4399 88.8076 22.7967C88.8314 23.1534 88.8968 23.4507 89.0039 23.6885C89.1109 23.9264 89.2833 24.0453 89.5212 24.0453C89.652 24.0453 89.8303 24.0096 90.0563 23.9383C90.2822 23.8669 90.4903 23.7956 90.6806 23.7242L90.8055 24.1523C90.5676 24.295 90.312 24.4496 90.0384 24.6161C89.7649 24.7707 89.4974 24.9015 89.2358 25.0085C88.9741 25.1275 88.7482 25.1869 88.5579 25.1869C88.2249 25.1869 87.9871 25.0858 87.8444 24.8837C87.7017 24.6815 87.6006 24.4318 87.5412 24.1345L87.2736 24.0631C86.8336 24.3485 86.3698 24.6102 85.8823 24.848C85.3947 25.0739 84.8893 25.1869 84.366 25.1869C83.8666 25.1869 83.4504 25.0799 83.1174 24.8658C82.7844 24.6518 82.5169 24.3723 82.3147 24.0275C82.1125 23.6826 81.9639 23.308 81.8688 22.9037C81.7855 22.4875 81.7439 22.0772 81.7439 21.6729C81.7439 21.0426 81.8212 20.4302 81.9758 19.8356C82.1423 19.241 82.392 18.7059 82.725 18.2302C83.0698 17.7426 83.5098 17.3621 84.045 17.0886C84.5801 16.8032 85.2282 16.6605 85.9893 16.6605C86.2747 16.6605 86.5898 16.714 86.9347 16.821C87.2914 16.928 87.6125 17.0826 87.8979 17.2848ZM87.5055 23.2069V19.1042C87.5055 18.8664 87.4936 18.6405 87.4698 18.4264C87.446 18.2123 87.3628 18.028 87.2201 17.8734C87.0655 17.7069 86.8812 17.5702 86.6671 17.4632C86.4531 17.3442 86.2331 17.2848 86.0071 17.2848C85.3531 17.2848 84.7882 17.5107 84.3125 17.9626C84.1104 18.1529 83.9023 18.5037 83.6882 19.015C83.486 19.5264 83.3731 20.234 83.3493 21.1377C83.3374 21.5064 83.3671 21.881 83.4385 22.2615C83.5098 22.6302 83.6466 22.9691 83.8487 23.2783C84.039 23.5756 84.2947 23.7718 84.6158 23.8669C84.9487 23.9621 85.2817 24.0096 85.6147 24.0096C85.9595 24.0096 86.2925 23.9264 86.6136 23.7599C86.9466 23.5934 87.2439 23.4091 87.5055 23.2069Z" fill="#122650"/>
<path d="M38.065 1.16232C37.4569 0.0136743 36.5515 -0.283622 35.3488 0.27043C34.9569 0.446105 34.3015 0.966373 33.3826 1.83123C32.4772 2.68258 31.761 3.45285 31.234 4.14203C29.4367 6.45283 28.0718 8.35823 27.1394 9.85823C26.3151 11.1555 25.8016 11.892 25.5989 12.0677C25.4502 12.2028 25.2948 12.169 25.1326 11.9663C25.011 11.8177 24.9435 11.5744 24.9299 11.2366C24.9164 10.8988 24.9367 10.1488 24.9908 8.98661C25.0853 7.18932 25.1124 5.53392 25.0718 4.02041C25.0313 2.50691 24.9367 1.56772 24.788 1.20286C24.5583 0.689347 24.2137 0.398808 23.7543 0.331241C23.3083 0.25016 22.7881 0.405565 22.1935 0.797455C21.734 1.10826 20.6664 1.4934 18.9908 1.95286C17.3286 2.3988 15.3692 2.83799 13.1124 3.27042C9.66649 3.94609 7.03813 4.70284 5.22732 5.54068C3.41652 6.365 2.20707 7.37175 1.59896 8.56093C0.990854 9.77715 0.85572 10.9123 1.19356 11.9663C1.54491 13.0204 2.32869 13.8447 3.5449 14.4393C4.07192 14.696 4.57868 14.8379 5.06516 14.865C5.76786 14.919 6.19353 14.7704 6.34218 14.419C6.51786 14.0136 6.20705 13.5812 5.40975 13.1217C4.49084 12.5947 4.08544 11.8717 4.19354 10.9528C4.31516 10.0339 4.93678 9.03391 6.0584 7.95283C6.78813 7.23662 8.05839 6.53392 9.86919 5.84473C11.68 5.15554 13.734 4.58798 16.0313 4.14203C17.2881 3.91231 18.3692 3.64204 19.2746 3.33123C20.3016 2.96636 20.8489 2.87177 20.9164 3.04744C20.9975 3.20961 20.734 3.93258 20.1259 5.21635C19.7881 5.90554 18.7678 8.44607 17.0651 12.8379C15.3624 17.2163 14.1732 19.973 13.4976 21.1082C12.957 22.0406 12.4165 22.8784 11.8759 23.6217C11.3354 24.3649 10.9841 24.7636 10.8219 24.8176C10.5922 24.8987 10.1597 25.2568 9.5246 25.8919C7.64623 27.7298 6.0111 28.0338 4.61922 26.8041C3.88949 26.169 3.45706 25.419 3.32193 24.5541C3.18679 23.6757 3.35571 22.8649 3.82868 22.1217C4.31516 21.3784 5.02462 20.8649 5.95705 20.5812C6.72732 20.3514 7.34894 20.3649 7.82191 20.6217C8.30839 20.8784 8.54488 21.3109 8.53136 21.919C8.53136 22.5271 8.26785 23.1622 7.74083 23.8244C7.47056 24.1622 7.30164 24.4663 7.23407 24.7365C7.11245 25.169 7.22731 25.4122 7.57866 25.4663C8.03812 25.5473 8.58542 25.2433 9.22055 24.5541C9.43676 24.3109 9.70028 24.1892 10.0111 24.1892C10.3219 24.1892 10.5178 24.0879 10.5989 23.8852C10.68 23.669 10.7205 23.1487 10.7205 22.3244C10.7205 21.3784 10.4435 20.4866 9.88946 19.6487C9.33541 18.8109 8.68677 18.2974 7.94353 18.1082C7.2138 17.919 6.13272 17.9866 4.7003 18.3109C3.28139 18.6352 2.30842 19.0271 1.78139 19.4866C0.821936 20.3244 0.247614 21.5203 0.0584258 23.0744C-0.130763 24.6284 0.139507 25.946 0.869233 27.0271C1.26112 27.5946 1.97734 28.1757 3.01787 28.7703C4.07192 29.3649 4.91651 29.669 5.55165 29.6825C7.45704 29.723 9.13947 29.1825 10.5989 28.0609C12.0584 26.9257 13.4638 25.0676 14.8151 22.4866C16.1665 19.9055 17.6192 16.3109 19.1732 11.7028C19.7813 9.90552 20.2273 8.66904 20.511 7.99337C20.7948 7.30418 21.011 6.95959 21.1597 6.95959C21.4029 6.95959 21.3827 8.04742 21.0989 10.2231C20.8286 12.3988 20.5246 14.7501 20.1867 17.2771C19.8624 19.7906 19.7746 21.3311 19.9232 21.8987C20.0719 22.4393 20.3759 22.7838 20.8354 22.9325C21.2948 23.0811 21.68 22.9595 21.9908 22.5676C22.1124 22.4325 22.6056 21.5136 23.4705 19.8109C24.3489 18.0947 24.9502 16.8852 25.2745 16.1825C25.5313 15.6014 25.9907 14.7569 26.6529 13.6487C27.3151 12.5271 27.734 11.7974 27.9097 11.4596C28.2745 10.7569 29.1664 9.41904 30.5853 7.44607C30.9907 6.89202 31.3421 6.41905 31.6394 6.02716C32.4772 4.97311 33.0042 4.45284 33.2204 4.46636C33.5177 4.47987 33.2948 5.56095 32.5515 7.70959C31.6596 10.2636 30.9975 12.6758 30.5651 14.946C30.4164 15.6623 30.1732 16.7231 29.8353 18.1285C29.484 19.642 29.3318 20.0134 29.2372 21.5675C29.1426 23.108 29.2034 24.1958 29.4196 24.831C29.879 26.1823 30.602 27.1283 31.5885 27.6688C32.5885 28.2093 33.8647 30.7296 35.0269 30.3242C36.2025 29.9053 36.4998 32.2296 37.4593 30.9728C37.5539 30.8512 38.4998 31.4323 38.5944 31.2972C39.689 29.7701 39.8782 32.0809 39.8917 31.2972C39.9052 30.8782 39.2971 30.8735 38.9188 30.9276C38.6485 30.9681 37.0269 29.5539 36.6485 30.3242C36.2701 31.135 35.4593 28.581 34.5404 29.5134C33.635 30.4458 37.7836 30.162 37.4593 29.9999C36.8912 29.7158 35.3512 28.5404 33.7296 26.2702C33.2583 25.6104 32.815 23.6825 33.3826 20.3176C33.9637 16.9528 34.7204 13.8177 35.6529 10.9123C36.4637 7.88526 36.9164 6.2704 37.011 6.0677L37.1731 5.54068C37.8893 3.20285 38.2542 1.92583 38.2677 1.70961C38.2677 1.60151 38.2002 1.41907 38.065 1.16232Z" fill="#34D399"/>
<path d="M39.6866 1.16232C39.0785 0.0136743 38.1731 -0.283622 36.9704 0.27043C36.5785 0.446105 35.9231 0.966373 35.0042 1.83123C34.0988 2.68258 33.3826 3.45285 32.8555 4.14203C31.0583 6.45283 29.6934 8.35823 28.761 9.85823C27.9367 11.1555 27.4231 11.892 27.2204 12.0677C27.0718 12.2028 26.9164 12.169 26.7542 11.9663C26.6326 11.8177 26.565 11.5744 26.5515 11.2366C26.538 10.8988 26.5583 10.1488 26.6123 8.98661C26.7069 7.18932 26.734 5.53392 26.6934 4.02041C26.6529 2.50691 26.5583 1.56772 26.4096 1.20286C26.1799 0.689347 25.8353 0.398808 25.3759 0.331241C24.9299 0.25016 24.4096 0.405565 23.815 0.797455C23.3556 1.10826 22.288 1.4934 20.6124 1.95286C18.9502 2.3988 16.9908 2.83799 14.734 3.27042C11.2881 3.94609 8.65971 4.70284 6.8489 5.54068C5.0381 6.365 3.82865 7.37175 3.22054 8.56093C2.61244 9.77715 2.4773 10.9123 2.81514 11.9663C3.16649 13.0204 3.95027 13.8447 5.16648 14.4393C5.6935 14.696 6.20026 14.8379 6.68674 14.865C7.38944 14.919 7.81512 14.7704 7.96376 14.419C8.13944 14.0136 7.82863 13.5812 7.03134 13.1217C6.11242 12.5947 5.70702 11.8717 5.81513 10.9528C5.93675 10.0339 6.55837 9.03391 7.67998 7.95283C8.40971 7.23662 9.67997 6.53392 11.4908 5.84473C13.3016 5.15554 15.3556 4.58798 17.6529 4.14203C18.9097 3.91231 19.9907 3.64204 20.8961 3.33123C21.9232 2.96636 22.4705 2.87177 22.538 3.04744C22.6191 3.20961 22.3556 3.93258 21.7475 5.21635C21.4097 5.90554 20.3894 8.44607 18.6867 12.8379C16.984 17.2163 15.7948 19.973 15.1191 21.1082C14.5786 22.0406 14.0381 22.8784 13.4975 23.6217C12.957 24.3649 12.6056 24.7636 12.4435 24.8176C12.2137 24.8987 11.7813 25.2568 11.1462 25.8919C9.26781 27.7298 7.63268 28.0338 6.2408 26.8041C5.51107 26.169 5.07864 25.419 4.94351 24.5541C4.80837 23.6757 4.97729 22.8649 5.45026 22.1217C5.93675 21.3784 6.6462 20.8649 7.57863 20.5812C8.3489 20.3514 8.97052 20.3649 9.44349 20.6217C9.92997 20.8784 10.1665 21.3109 10.1529 21.919C10.1529 22.5271 9.88943 23.1622 9.36241 23.8244C9.09214 24.1622 8.92322 24.4663 8.85565 24.7365C8.73403 25.169 8.8489 25.4122 9.20025 25.4663C9.6597 25.5473 10.207 25.2433 10.8421 24.5541C11.0583 24.3109 11.3219 24.1892 11.6327 24.1892C11.9435 24.1892 12.1394 24.0879 12.2205 23.8852C12.3016 23.669 12.3421 23.1487 12.3421 22.3244C12.3421 21.3784 12.0651 20.4866 11.511 19.6487C10.957 18.8109 10.3083 18.2974 9.56511 18.1082C8.83538 17.919 7.75431 17.9866 6.32188 18.3109C4.90297 18.6352 3.93 19.0271 3.40297 19.4866C2.44352 20.3244 1.8692 21.5203 1.68001 23.0744C1.49082 24.6284 1.76109 25.946 2.49082 27.0271C2.88271 27.5946 3.59892 28.1757 4.63945 28.7703C5.6935 29.3649 6.5381 29.669 7.17323 29.6825C9.07862 29.723 10.761 29.1825 12.2205 28.0609C13.68 26.9257 15.0854 25.0676 16.4367 22.4866C17.788 19.9055 19.2407 16.3109 20.7948 11.7028C21.4029 9.90552 21.8488 8.66904 22.1326 7.99337C22.4164 7.30418 22.6326 6.95959 22.7813 6.95959C23.0245 6.95959 23.0042 8.04742 22.7205 10.2231C22.4502 12.3988 22.1461 14.7501 21.8083 17.2771C21.484 19.7906 21.3961 21.3311 21.5448 21.8987C21.6934 22.4393 21.9975 22.7838 22.4569 22.9325C22.9164 23.0811 23.3015 22.9595 23.6123 22.5676C23.734 22.4325 24.2272 21.5136 25.0921 19.8109C25.9704 18.0947 26.5718 16.8852 26.8961 16.1825C27.1529 15.6014 27.6123 14.7569 28.2745 13.6487C28.9366 12.5271 29.3556 11.7974 29.5312 11.4596C29.8961 10.7569 30.788 9.41904 32.2069 7.44607C32.6123 6.89202 32.9637 6.41905 33.261 6.02716C34.0988 4.97311 34.6258 4.45284 34.842 4.46636C35.1393 4.47987 34.9164 5.56095 34.1731 7.70959C33.2812 10.2636 32.6191 12.6758 32.1866 14.946C32.038 15.6623 31.7947 16.7231 31.4569 18.1285C31.1056 19.642 30.9533 20.0134 30.8587 21.5675C30.7641 23.108 30.825 24.1958 31.0412 24.831C31.5006 26.1823 32.2236 27.1283 33.2101 27.6688C34.2101 28.2093 35.4863 30.7296 36.6485 30.3242C37.8241 29.9053 38.1214 32.2296 39.0809 30.9728C39.1755 30.8512 40.1214 31.4323 40.216 31.2972C41.3106 29.7701 41.4998 32.0809 41.5133 31.2972C41.5268 30.8782 40.9187 30.8735 40.5403 30.9276C40.2701 30.9681 38.6485 29.5539 38.2701 30.3242C37.8917 31.135 37.0809 28.581 36.162 29.5134C35.2566 30.4458 39.4052 30.162 39.0809 29.9999C38.5128 29.7158 36.9728 28.5404 35.3512 26.2702C34.8799 25.6104 34.4366 23.6825 35.0042 20.3176C35.5853 16.9528 36.342 13.8177 37.2744 10.9123C38.0853 7.88526 38.538 6.2704 38.6326 6.0677L38.7947 5.54068C39.5109 3.20285 39.8758 1.92583 39.8893 1.70961C39.8893 1.60151 39.8217 1.41907 39.6866 1.16232Z" fill="#122650"/>
<path d="M33.1657 22.8013C33.2517 23.101 33.3085 23.5032 33.3576 23.8163C33.3729 23.9142 33.2816 23.8941 33.2899 23.9639C33.3071 24.1008 33.39 24.2024 33.4098 24.339C33.4162 24.3847 33.2785 24.3848 33.2883 24.4323C33.3443 24.6934 33.4893 24.9025 33.6034 25.1451C34.1714 26.3527 35.1884 27.3616 36.3737 28.1964C36.7727 28.4786 37.2139 28.863 37.7077 29.0575C37.7616 29.0783 37.7811 28.9642 37.7949 28.961C38.01 28.9131 37.8592 29.087 37.9476 29.1638C38.2944 29.4655 38.7916 29.6967 39.2077 29.8186C39.3874 29.8712 39.2957 29.5978 39.4241 29.7817C39.4332 29.7943 39.3457 29.8859 39.3889 29.9165C39.4869 29.9858 39.7039 30.0465 39.7873 30.0874C39.9479 30.167 39.9763 30.1761 40.1366 30.2351C40.3609 30.3183 40.5907 30.4584 40.8317 30.5089C40.8831 30.5193 40.8549 30.3836 40.9399 30.3897C41.0248 30.3959 41.2321 30.4721 41.2958 30.5213C41.3592 30.5705 41.3009 30.6515 41.3072 30.6762C41.3589 30.8838 41.6835 30.7159 41.7174 30.719C42.3356 30.788 42.7744 31.0521 43.3431 31.1888C43.784 31.2939 44.2148 31.3401 44.6229 31.4308C45.1014 31.5376 45.5156 31.6819 45.9747 31.7508C46.024 31.7583 45.9908 31.6089 46.0509 31.6178C46.685 31.7112 47.3572 31.8294 47.969 32.0085C48.0319 32.0268 47.9324 32.1387 47.9944 32.1644C48.3724 32.3192 48.9851 32.6403 49.2882 32.1295C49.5631 32.182 49.8733 32.2367 50.1051 32.3695C50.2533 32.4547 50.089 32.5745 50.286 32.5358C50.3304 32.5272 50.2857 32.4038 50.3514 32.3998C50.6279 32.3829 50.9249 32.4485 51.2046 32.4106C51.2614 32.4026 51.2551 32.2955 51.2725 32.2777C51.4174 32.1345 51.6205 32.4075 51.6631 32.4295C52.0083 32.5954 52.2756 32.5597 52.6128 32.5854C52.6912 32.5914 52.6078 32.443 52.6835 32.4436C53.0751 32.4485 53.4871 32.4844 53.8707 32.567C53.9539 32.5856 53.8706 32.7031 53.9101 32.7182C54.0847 32.7832 54.135 32.5558 54.3033 32.6131C54.3388 32.6249 54.3139 32.7279 54.3199 32.7396C54.415 32.9234 54.516 32.6734 54.5427 32.6689C54.8817 32.6064 55.0882 32.8796 55.4196 32.853C55.4592 32.8496 55.3745 32.7151 55.4855 32.7134C56.2394 32.7012 56.9829 32.7521 57.7178 32.8643C57.8313 32.8816 57.7493 32.9797 57.7563 32.992C57.8714 33.1835 57.9494 32.9288 57.9865 32.9194C58.2791 32.8523 58.5601 33.0668 58.751 32.7628C59.9641 32.8681 61.2094 32.6763 62.4258 32.9105C62.4414 32.9131 62.4175 33.0396 62.4487 33.0444C62.8255 33.1029 62.7476 32.9099 62.9873 32.6625C63.0475 32.6003 63.2489 32.8815 63.2668 32.9019C63.3315 32.9774 63.2746 33.1667 63.2958 33.181C63.4716 33.2928 63.4203 32.6761 63.65 32.6666C63.6571 32.6673 63.6322 32.7823 63.6516 32.7928C63.7116 32.8259 63.7679 32.7783 63.827 32.815C63.9623 32.9 64.0224 33.1983 64.2167 33.0146C64.2413 32.9907 64.1864 32.6422 64.3891 32.6495C64.4698 32.6528 64.8271 32.6296 64.9289 32.6471C65.0304 32.6647 64.9672 32.7811 64.9746 32.7856C65.2533 32.9211 65.1537 32.9881 65.3017 33.202C65.45 33.4149 65.3842 32.8919 65.4366 32.8303C65.4891 32.7689 65.6957 32.8811 65.7474 32.9211C65.799 32.9612 65.7416 33.0363 65.7868 33.0581C66.0865 33.1999 65.8996 32.7903 65.9905 32.7015C66.2054 32.4912 66.4019 32.87 66.6064 32.8957C66.6618 32.9026 66.6116 32.8167 66.6599 32.8054C66.8512 32.7617 66.9756 32.8757 67.1894 32.7499C67.2244 32.7294 67.3874 32.4837 67.5149 32.6474C67.533 32.6711 67.4929 32.7712 67.5775 32.7872C67.7038 32.8114 67.9296 32.8169 68.0614 32.7749C68.1586 32.7438 68.0337 32.5923 68.1619 32.6329C68.2189 32.6511 68.1229 32.7519 68.2295 32.7782C68.3355 32.8046 68.6008 32.7808 68.7019 32.7699C68.8027 32.7589 68.7382 32.642 68.7458 32.6332C68.7916 32.5828 68.9812 32.5095 68.9984 32.5083C69.8427 32.4278 70.6472 32.5645 71.4809 32.4193C71.5463 32.408 71.4906 32.2846 71.5004 32.2816C71.721 32.2071 71.5747 32.5628 71.7433 32.6614C71.6956 32.4049 71.7957 32.4428 71.9477 32.3996C72.0215 32.3786 71.971 32.2823 71.9768 32.2714C72.0736 32.1086 72.1701 32.2976 72.194 32.3358C72.2823 32.4765 72.3458 32.2939 72.4058 32.3878C72.4659 32.481 72.3641 32.6378 72.5142 32.6211C72.5472 32.5244 72.4119 32.2935 72.5219 32.243C72.9362 32.0528 73.7627 32.1586 74.1153 32.1401C74.4658 32.122 74.5804 32.092 74.7836 32.1032C75.152 32.123 74.9994 31.9586 75.2147 31.8511C75.4308 31.7433 75.3718 32.1967 75.4152 32.2878C75.458 32.3789 75.4816 32.2773 75.5274 32.3248C75.573 32.3723 75.4947 32.4467 75.5902 32.4554C75.6858 32.4642 75.9216 32.2658 75.943 32.1628C75.9882 31.9446 75.8472 31.738 76.1033 31.7861C76.1181 31.789 76.0857 31.9104 76.1415 31.9156C76.5847 31.9534 77.0368 31.9036 77.4826 31.9275C77.5439 31.9309 77.5066 32.0665 77.5425 32.07C77.9132 32.1067 77.7559 31.906 77.921 31.6397C77.9183 31.9663 78.0517 32.1489 78.3241 32.1154C78.4879 32.0953 78.4415 31.9589 78.5343 31.8462C78.5621 31.8123 78.6907 31.8932 78.703 31.8245C78.7437 31.5999 78.6026 31.3734 78.896 31.432C78.909 31.435 78.8854 31.5581 78.929 31.5595C79.2107 31.5694 79.2134 31.3397 79.5078 31.2718C79.7386 31.2186 80.1745 31.298 80.4456 31.2824C80.4918 31.6433 80.7302 31.5254 80.7954 31.2626C80.968 31.2483 81.151 31.2076 81.3218 31.2178C81.3805 31.2211 81.3582 31.3308 81.3671 31.3411C81.5033 31.5016 81.5428 31.2492 81.5784 31.2343C81.9667 31.0833 82.3227 31.217 82.6812 30.9797C82.6939 30.9711 82.6779 30.718 82.8088 30.8846C82.8175 30.8962 82.7074 31.0293 82.8902 31.0104C83.0724 30.9915 83.439 31.072 83.6701 30.9171C83.7261 30.8798 83.8465 30.6532 83.994 30.7921C84.0137 30.811 84.0072 30.8854 84.0371 30.9215C84.1335 31.0364 84.135 30.7775 84.2588 30.9775C84.3826 31.1775 84.5954 31.3081 84.8244 31.1194C84.8317 31.1138 84.8591 30.9042 84.9391 30.8945C85.0668 30.8791 85.254 30.8912 85.3865 30.868C85.45 30.8568 85.3888 30.7395 85.3995 30.7354C85.8153 30.5954 86.1383 30.6549 86.6066 30.6246C86.6921 30.6194 86.9015 30.4096 87.0859 30.5153C87.2883 30.6309 87.2111 31.2708 87.5944 31.0549C87.7495 30.9681 87.822 30.1605 88.1887 30.5075C88.7452 30.3066 89.3178 30.4139 89.8683 30.1662C89.8929 30.1552 89.9344 29.9252 89.9954 29.9169C90.0861 29.905 90.1541 29.9962 90.2195 29.9909C90.4941 29.9709 90.7244 29.8386 90.9867 29.8026C91.0863 29.7887 91.0716 29.8991 91.1905 29.8824C91.3093 29.8656 91.3617 29.714 91.534 29.7493C91.6642 29.7764 91.8388 30.0322 92.0057 30.0336C91.9584 29.7571 92.0696 29.7415 92.2513 29.6306C92.2862 29.6091 92.2271 29.5212 92.2426 29.5061C92.3054 29.4426 92.388 29.5088 92.4463 29.4416C92.4605 29.4254 92.4428 29.3313 92.4534 29.3127C92.5425 29.1515 92.7759 29.325 92.8162 29.3552C92.9689 29.4701 93.003 29.3364 93.1098 29.3723C93.2166 29.4082 93.0871 29.5055 93.2056 29.5166C93.4514 29.5393 93.7469 29.4641 93.9839 29.4205C94.0784 29.4025 93.9887 29.2903 94.0016 29.2848C94.1899 29.2136 94.4144 29.3064 94.4713 29.0348C94.739 29.6519 94.5761 28.9482 94.8815 29.0197C94.9056 29.0256 94.9967 29.3246 94.9215 29.3869C94.8462 29.449 94.6985 29.3801 94.5957 29.474C94.5714 29.496 94.471 29.8144 94.4528 29.8361C94.3104 30.0062 94.1935 29.5551 94.1795 29.5319C94.0228 29.2825 93.8916 29.6297 93.8448 29.6613C93.631 29.806 93.4199 29.7816 93.2388 29.8901C93.1202 29.9605 93.1671 30.2619 93.0651 30.2726C92.7234 30.3089 92.5234 29.9149 92.2775 30.3385C92.2247 30.4288 92.3557 30.7427 92.0623 30.5329C92.0438 30.5197 91.8178 30.3194 91.7423 30.4883C91.7328 30.5095 91.7516 30.6048 91.7358 30.6161C91.63 30.6902 91.5382 30.6291 91.4192 30.6895C91.3001 30.75 91.1589 30.833 91.0091 30.8279C90.9188 30.825 90.7742 30.6682 90.7247 30.6324C90.5843 30.5291 90.4976 30.7581 90.3969 30.6198C90.2956 30.4808 90.3946 30.2225 90.1854 30.1595C90.2245 30.4087 90.2556 30.6662 90.2907 30.9176C89.8723 30.9865 89.437 30.9834 89.0156 31.0708C88.9633 31.0819 89.0411 31.2056 88.9857 31.221C88.7515 31.2851 88.5269 31.227 88.2875 31.3086C88.1023 31.3722 87.9184 31.5503 87.7256 31.6206C87.5544 31.3576 87.2766 31.5053 87.0583 31.5159C86.9819 31.5198 86.9739 31.443 86.9165 31.4273C86.7001 31.3699 86.8374 31.6052 86.7885 31.6542C86.5775 31.8638 86.4606 31.2983 86.1816 31.3596C86.1669 31.3627 86.0354 31.6967 86.0134 31.7197C85.8744 31.8696 85.9694 31.6185 85.8659 31.6127C85.6769 31.602 85.5386 31.5504 85.34 31.6743C85.2822 31.7108 85.1639 31.9245 85.0195 31.7976C85.0005 31.781 84.993 31.6792 84.9793 31.6754C84.7325 31.6148 84.7775 31.9312 84.6626 32.0593C84.5476 32.1873 84.3092 32.0019 84.2579 31.9457C84.1239 31.8004 84.3298 31.8631 84.3332 31.8462C84.3719 31.6455 84.2287 31.7018 84.1131 31.7037C84.0477 31.3969 83.8927 31.4404 83.9934 31.7069C84.0047 31.7359 84.0881 31.6932 84.1131 31.7037C84.0617 32.0231 83.8942 32.0894 83.6568 31.8357C83.5449 31.7168 83.6068 31.5484 83.3392 31.648C83.2177 31.693 83.2991 31.8988 83.1973 31.974C82.9645 32.1456 82.6059 31.9965 82.351 32.0667C82.2584 32.0922 82.3678 32.1953 82.3051 32.2167C82.1387 32.274 81.975 32.2087 81.8103 32.2788C81.7954 32.2853 81.8513 32.402 81.7982 32.4114C81.3955 32.4851 81.0356 32.457 80.6124 32.5146C80.4059 32.5428 80.0473 32.6616 79.8326 32.6772C79.4603 32.7051 78.9845 32.5876 78.6774 32.6719C78.477 32.7265 78.5379 32.8431 78.4613 32.9381C78.3134 33.1221 77.9779 32.8703 77.9323 32.8304C77.9308 32.8291 78.1021 32.7777 78.0007 32.7268C77.9296 32.6025 77.9342 32.8296 77.9323 32.8304C77.9031 32.8047 77.5473 32.8215 77.4788 32.8538C77.4421 32.8714 77.4781 32.985 77.4586 32.992C76.9964 33.1555 76.5251 33.2427 76.0405 33.2446C76.0318 33.2432 76.0292 33.1116 76.009 33.11C75.7257 33.0846 75.5676 33.2642 75.3509 33.3847C75.1342 33.5051 74.951 33.4935 74.7914 33.2849C74.62 33.3325 74.3595 33.2609 74.2097 33.2163C74.06 33.1717 74.0672 33.4274 74.0551 33.4338C73.6788 33.6362 73.4366 33.5146 73.029 33.5331C72.8351 33.5415 72.4576 33.616 72.2529 33.6636C72.0903 33.7019 71.9893 33.6515 71.8372 33.7042C71.8168 33.7112 71.8485 33.8223 71.8426 33.8273C71.6831 33.9787 71.74 33.6945 71.6999 33.6485C71.5546 33.4809 71.4666 33.3927 71.2552 33.4971C71.2065 33.521 71.0952 33.9324 71.005 33.9639C70.8879 34.0041 70.9204 33.8574 70.7983 33.903C70.7878 33.9068 70.7978 33.9946 70.7202 33.9975C70.36 34.012 69.9665 33.9935 69.5981 34.032C69.5477 34.0369 69.6236 34.1715 69.551 34.1809C69.2135 34.2247 68.828 34.2491 68.4849 34.2085C68.4004 34.1981 68.4455 34.0963 68.4253 34.0686C68.3016 33.9008 68.1631 34.1676 68.1375 34.1743C67.5282 34.341 67.0435 34.1405 66.4299 34.2881C66.398 34.2966 66.1455 34.5867 66.0137 34.3582C66.0046 34.343 65.8738 34.109 65.7795 34.2793C65.7736 34.29 65.8535 34.4098 65.7254 34.4043C65.5974 34.3987 65.397 34.4925 65.2158 34.3652C65.1584 34.3252 65.0162 34.0917 64.862 34.2912C64.8521 34.3051 64.6197 34.7503 64.5156 34.4557C64.4988 34.4072 64.4993 34.0905 64.3123 34.2614C64.2766 34.2945 64.3472 34.362 64.2513 34.4104C64.1042 34.485 63.9024 34.4088 63.7248 34.5571C63.6939 34.5834 63.5614 34.8037 63.4429 34.6451C63.4244 34.6203 63.4537 34.5134 63.394 34.5039C63.1106 34.458 62.8197 34.5389 62.5343 34.4748C62.4333 34.4523 62.4791 34.28 62.3736 34.2375C62.2679 34.195 62.0576 34.1571 61.9514 34.238C61.845 34.319 61.9709 34.5879 61.8087 34.614C61.113 34.7268 60.3837 34.58 59.676 34.5626C59.5707 34.5599 59.6587 34.6567 59.5036 34.6597C58.9381 34.6719 57.939 34.7604 57.4407 34.5464C57.0439 34.3756 57.547 34.2559 57.2438 34.1844C57.0979 34.1502 56.9348 34.464 56.8993 34.4734C56.5517 34.5685 56.3208 34.4232 56.0071 34.4581C55.9413 34.4653 56.0022 34.5953 55.9462 34.5999C55.7548 34.6171 55.5568 34.5539 55.3758 34.5585C55.2946 34.5608 55.3063 34.6592 55.232 34.6492C55.0543 34.6261 54.8987 34.5792 54.73 34.4806C54.7147 34.4716 54.8252 34.354 54.6949 34.3443C54.4839 34.3289 54.2275 34.2271 53.9831 34.309C53.9106 34.3336 53.8966 34.5572 53.7514 34.3951C53.7205 34.3612 53.7774 34.095 53.5809 34.3174C53.5481 34.3544 53.221 34.6505 53.0817 34.4398C53.0449 34.3845 52.9567 34.1589 52.8674 34.188C52.8552 34.1928 52.8954 34.3157 52.8222 34.323C52.5644 34.3465 52.2993 34.316 52.0378 34.3351C51.9679 34.3404 52.062 34.4719 51.9581 34.4759C51.6725 34.4869 51.3234 34.4278 51.0385 34.3646C50.9351 34.3412 51.0162 34.2446 51.0095 34.2328C50.9029 34.0406 50.8099 34.2796 50.7681 34.2903C50.509 34.3538 50.3293 34.2208 50.0977 34.229C50.0338 34.2309 50.0671 34.3522 50.0535 34.3613C49.913 34.4503 50.0309 34.25 49.9508 34.2187C49.7269 34.1302 49.4713 34.1129 49.2402 34.1024C49.1523 34.0984 49.2357 34.2446 49.1563 34.2393C48.6853 34.2105 48.2063 34.1385 47.7733 34.0045C47.6918 33.979 47.7583 33.8822 47.7442 33.8561C47.6474 33.674 47.4424 33.8762 47.3992 33.892C47.2026 33.9646 47.1491 33.8631 46.9775 33.8553C46.14 33.8189 45.2082 33.5952 44.4376 33.4007C43.474 33.1557 42.7292 32.8793 41.8109 32.6574C41.7528 32.6431 41.7743 32.7936 41.7236 32.7829C41.0683 32.6384 40.4142 32.3815 39.7751 32.2037C39.7214 32.1884 39.7564 32.3404 39.6651 32.3187C39.4768 32.2748 39.2516 32.1862 39.0878 32.08C39.008 32.0285 39.1641 31.9657 39.0833 31.9161C38.8956 31.8003 38.6859 31.7085 38.4764 31.6463C38.387 31.62 38.4658 31.7981 38.3533 31.754C37.5577 31.442 36.8129 31.1193 36.1214 30.5321C36.0753 30.4924 36.1661 30.2282 36.0333 30.2123C35.987 30.2737 35.9424 30.3516 35.898 30.4201C34.8006 29.8337 33.8177 29.0015 32.9332 28.0526C32.8953 28.0118 32.8563 28.1824 32.7818 28.1031C32.3573 27.6488 31.9342 27.181 31.7077 26.5549C31.6857 26.4931 31.9188 26.3848 31.7908 26.2489C31.7679 26.2267 31.5979 26.0007 31.5149 25.9619C31.5028 25.957 31.4226 26.0603 31.3755 25.9804C31.1042 25.5146 30.9073 24.977 30.8182 24.4464C30.8041 24.3607 30.9528 24.4101 30.9442 24.3494C30.8826 23.9218 30.6892 23.4916 30.745 23.0743C30.7846 22.7969 31.0172 22.8667 31.2161 22.7059C31.2439 22.6835 31.233 22.5253 31.3582 22.5062C31.6723 22.4587 32.0244 22.4974 32.3583 22.4375C32.4297 22.4251 32.337 22.2494 32.521 22.343C32.5331 22.3498 32.6029 22.474 32.6659 22.4984C32.7092 22.5155 32.8326 22.4637 32.8897 22.501C32.9468 22.5376 32.8455 22.5974 32.9164 22.6598C32.9883 22.7209 33.1277 22.6708 33.1657 22.8013ZM73.5377 33.0163C73.3932 32.9082 73.4199 33.3564 73.5517 33.2348C73.558 33.2284 73.5451 33.0215 73.5377 33.0163ZM89.3798 30.6495C89.1733 30.486 89.1085 30.7934 89.2564 30.9219C89.4044 31.0501 89.4427 30.699 89.3798 30.6495ZM91.114 30.1794C90.8867 30.0637 90.9738 30.6947 91.1625 30.528C91.1735 30.5185 91.1273 30.1861 91.114 30.1794ZM31.3695 23.3118C31.3748 23.3088 31.3606 23.1985 31.3545 23.1969C31.2034 23.1621 31.2325 23.3869 31.3695 23.3118ZM92.8342 29.6854C92.7553 29.6133 92.5955 29.746 92.6935 29.8358C92.7724 29.908 92.9325 29.7751 92.8342 29.6854ZM66.6254 33.1139C66.6229 33.1074 66.5469 33.106 66.5507 33.1437C66.5633 33.2649 66.6666 33.2241 66.6254 33.1139ZM95.7921 29.0739C95.3481 29.1428 94.9761 28.6833 95.4646 28.6419C95.5531 28.6343 95.3129 28.8448 95.4325 28.8682C95.6514 28.9106 95.7171 28.5596 95.959 28.6892C96.003 28.713 95.8177 29.0712 95.7914 29.0748C95.7916 29.0745 95.7919 29.0742 95.7921 29.0739ZM73.4061 32.4882C73.4029 32.4826 73.2968 32.4879 73.2949 32.494C73.2523 32.6416 73.4662 32.6309 73.4061 32.4882ZM62.1468 33.0416C62.1405 33.0292 61.8957 33.0243 61.8881 33.0361C61.7667 33.2725 62.2626 33.2832 62.1468 33.0416ZM80.4512 31.2914C80.5475 31.1331 80.6784 31.0974 80.7949 31.2625C80.6803 31.2692 80.5687 31.2837 80.4512 31.2914Z" fill="#122650"/>
</svg>
