<svg width="146" height="146" viewBox="0 0 146 146" fill="none" xmlns="http://www.w3.org/2000/svg">
<path d="M42.3611 73.25H73.25M73.25 73.25H104.139M73.25 73.25V104.139M73.25 73.25V42.3611M73.25 142.75C64.1231 142.75 55.0856 140.952 46.6535 137.46C38.2214 133.967 30.5597 128.848 24.1061 122.394C17.6524 115.94 12.5331 108.279 9.04037 99.8465C5.54767 91.4144 3.75 82.3769 3.75 73.25C3.75 64.1231 5.54767 55.0856 9.04037 46.6535C12.5331 38.2214 17.6524 30.5597 24.1061 24.1061C30.5597 17.6524 38.2214 12.5331 46.6535 9.04037C55.0856 5.54767 64.1231 3.75 73.25 3.75C91.6825 3.75 109.36 11.0723 122.394 24.1061C135.428 37.1399 142.75 54.8175 142.75 73.25C142.75 91.6825 135.428 109.36 122.394 122.394C109.36 135.428 91.6825 142.75 73.25 142.75Z" stroke="#9CA3AF" stroke-width="6" stroke-linecap="round" stroke-linejoin="round"/>
</svg>
