<svg width="530" height="188" viewBox="0 0 530 188" fill="none" xmlns="http://www.w3.org/2000/svg">
<path d="M243.17 88.4952L227.66 95.2052C227.77 96.3419 228.064 97.5152 228.54 98.7252C229.054 99.9352 229.805 100.944 230.795 101.75C231.822 102.557 233.142 102.96 234.755 102.96C236.259 102.96 237.725 102.575 239.155 101.805C240.622 101.035 241.979 100.174 243.225 99.2202L243.83 99.3302L244.545 100.32C243.409 101.384 242.162 102.41 240.805 103.4C239.485 104.354 238.074 105.142 236.57 105.765C235.104 106.389 233.582 106.7 232.005 106.7C230.172 106.7 228.65 106.315 227.44 105.545C226.267 104.775 225.35 103.767 224.69 102.52C224.03 101.237 223.554 99.8252 223.26 98.2852C223.004 96.7086 222.875 95.1502 222.875 93.6102C222.875 91.9969 223.077 90.4202 223.48 88.8802C223.884 87.3402 224.617 85.9469 225.68 84.7002C227.037 83.1236 228.65 81.9136 230.52 81.0702C232.427 80.1902 234.425 79.7502 236.515 79.7502C238.899 79.7502 240.787 80.4836 242.18 81.9502C243.61 83.4169 244.325 85.2136 244.325 87.3402C244.325 87.6702 244.197 87.9086 243.94 88.0552C243.72 88.2019 243.464 88.3486 243.17 88.4952ZM229.97 84.2602C228.907 85.3969 228.21 86.5886 227.88 87.8352C227.587 89.0819 227.44 90.3836 227.44 91.7402C227.44 91.8869 227.44 92.0519 227.44 92.2352C227.477 92.3819 227.514 92.5469 227.55 92.7302L227.77 92.9502L238.88 88.5502C239.064 88.4769 239.229 88.3302 239.375 88.1102C239.522 87.8902 239.595 87.5602 239.595 87.1202C239.595 86.3502 239.394 85.5619 238.99 84.7552C238.587 83.9486 238 83.2886 237.23 82.7752C236.497 82.2252 235.617 81.9502 234.59 81.9502C233.674 81.9502 232.812 82.1519 232.005 82.5552C231.235 82.9586 230.557 83.5269 229.97 84.2602ZM266.706 106.26C266.706 105.674 266.742 104.592 266.816 103.015C266.926 101.439 267.017 99.6052 267.091 97.5152C267.201 95.4252 267.256 93.3352 267.256 91.2452C267.256 88.9719 266.962 87.2119 266.376 85.9652C265.789 84.6819 264.579 84.0402 262.746 84.0402C261.902 84.0402 261.004 84.2236 260.051 84.5902C259.134 84.9202 258.327 85.2869 257.631 85.6902C256.934 86.0936 256.494 86.3502 256.311 86.4602C256.237 88.4402 256.164 90.4202 256.091 92.4002C256.054 94.3802 256.036 96.3786 256.036 98.3952C256.036 99.5319 256.036 100.687 256.036 101.86C256.072 102.997 256.109 104.134 256.146 105.27L252.461 106.59L251.691 106.15C251.727 103.62 251.801 101.09 251.911 98.5602C252.021 96.0302 252.076 93.5186 252.076 91.0252C252.076 89.6319 252.039 88.3669 251.966 87.2302C251.929 86.0569 251.764 85.1219 251.471 84.4252C251.177 83.7286 250.646 83.3802 249.876 83.3802C249.436 83.3802 248.794 83.5636 247.951 83.9302C247.107 84.2602 246.374 84.6086 245.751 84.9752L245.091 83.9302C246.191 83.0502 247.382 82.2069 248.666 81.4002C249.949 80.5936 251.269 80.1719 252.626 80.1352C254.019 80.1352 254.936 80.5569 255.376 81.4002C255.816 82.2436 256.036 83.1786 256.036 84.2052L256.476 84.5352C257.906 83.7652 259.427 82.9586 261.041 82.1152C262.654 81.2352 264.286 80.7952 265.936 80.7952C266.962 80.7952 267.916 81.0519 268.796 81.5652C269.676 82.0786 270.372 82.7752 270.886 83.6552L271.766 83.7652C272.462 83.3986 273.287 82.9769 274.241 82.5002C275.194 82.0236 276.221 81.6202 277.321 81.2902C278.421 80.9236 279.502 80.7402 280.566 80.7402C281.372 80.7402 282.142 80.8502 282.876 81.0702C283.646 81.2536 284.324 81.6386 284.911 82.2252C285.644 82.9586 286.011 84.1502 286.011 85.8002C286.011 87.4502 286.011 89.6502 286.011 92.4002V99.6052C286.011 100.082 286.066 100.614 286.176 101.2C286.322 101.75 286.597 102.227 287.001 102.63C287.404 102.997 288.009 103.18 288.816 103.18C289.402 103.18 290.081 102.942 290.851 102.465C291.657 101.952 292.391 101.457 293.051 100.98H293.821L294.206 102.135C293.399 102.869 292.519 103.62 291.566 104.39C290.612 105.16 289.622 105.784 288.596 106.26C287.569 106.774 286.506 107.03 285.406 107.03C284.122 107.03 283.169 106.59 282.546 105.71C281.959 104.794 281.666 103.822 281.666 102.795C281.666 102.575 281.684 102.044 281.721 101.2C281.757 100.357 281.776 99.3669 281.776 98.2302C281.812 97.0569 281.849 95.8652 281.886 94.6552C281.922 93.4086 281.941 92.2719 281.941 91.2452C281.941 88.9719 281.611 87.2119 280.951 85.9652C280.291 84.6819 279.062 84.0402 277.266 84.0402C275.909 84.0402 274.736 84.2419 273.746 84.6452C272.756 85.0486 271.876 85.4702 271.106 85.9102C271.069 87.1569 271.032 88.4219 270.996 89.7052C270.996 90.9519 270.996 92.2169 270.996 93.5002C270.996 97.3869 271.106 101.237 271.326 105.05L267.256 106.59L266.706 106.26ZM306.968 106.81C304.438 106.81 302.403 106.26 300.863 105.16C299.36 104.024 298.26 102.575 297.563 100.815C296.867 99.0552 296.445 97.2036 296.298 95.2602C296.298 93.3536 296.463 91.4469 296.793 89.5402C297.16 87.6336 298.003 85.9652 299.323 84.5352C300.607 83.1052 302.165 82.0786 303.998 81.4552C305.868 80.7952 307.757 80.4652 309.663 80.4652C312.377 80.4652 314.522 81.0702 316.098 82.2802C317.675 83.4902 318.812 85.0486 319.508 86.9552C320.205 88.8619 320.553 90.8419 320.553 92.8952C320.553 94.6919 320.315 96.4519 319.838 98.1752C319.398 99.8986 318.573 101.439 317.363 102.795C316.08 104.262 314.503 105.307 312.633 105.93C310.8 106.517 308.912 106.81 306.968 106.81ZM301.468 88.6602C301.322 89.3569 301.212 90.0536 301.138 90.7502C301.065 91.4469 301.028 92.1619 301.028 92.8952C301.028 94.0319 301.138 95.2786 301.358 96.6352C301.578 97.9919 301.945 99.2752 302.458 100.485C303.008 101.659 303.76 102.63 304.713 103.4C305.703 104.17 306.95 104.555 308.453 104.555C309.957 104.555 311.167 104.225 312.083 103.565C313.037 102.905 313.77 102.044 314.283 100.98C314.797 99.9169 315.145 98.7619 315.328 97.5152C315.548 96.2686 315.658 95.0769 315.658 93.9402C315.658 92.8036 315.567 91.5936 315.383 90.3102C315.2 88.9902 314.852 87.7436 314.338 86.5702C313.862 85.3969 313.128 84.4436 312.138 83.7102C311.185 82.9769 309.938 82.6102 308.398 82.6102C306.932 82.6102 305.538 83.1052 304.218 84.0952C302.898 85.0852 301.982 86.6069 301.468 88.6602ZM342.559 87.3952L341.899 87.1202C341.753 86.3502 341.459 85.6352 341.019 84.9752C340.579 84.2786 339.901 83.9302 338.984 83.9302C337.848 83.9302 336.931 84.3152 336.234 85.0852C335.538 85.8552 335.043 86.6069 334.749 87.3402C334.493 87.9269 334.346 88.7702 334.309 89.8702C334.273 90.9702 334.273 92.1436 334.309 93.3902C334.346 94.6002 334.364 95.7002 334.364 96.6902C334.364 99.4402 334.419 102.227 334.529 105.05L330.679 106.205L329.854 105.71C330.038 103.767 330.184 101.659 330.294 99.3852C330.441 97.1119 330.514 94.8752 330.514 92.6752C330.514 91.2452 330.496 89.8152 330.459 88.3852C330.423 86.9552 330.239 85.7636 329.909 84.8102C329.579 83.8569 328.993 83.3802 328.149 83.3802C327.526 83.3802 326.829 83.5636 326.059 83.9302C325.289 84.2969 324.556 84.6819 323.859 85.0852L323.199 84.1502C323.933 83.5636 324.721 82.9586 325.564 82.3352C326.444 81.7119 327.324 81.1802 328.204 80.7402C329.084 80.2636 329.891 80.0252 330.624 80.0252C331.871 80.0252 332.806 80.3919 333.429 81.1252C334.053 81.8586 334.438 82.8119 334.584 83.9852L335.134 84.2052C335.684 83.6919 336.289 83.1419 336.949 82.5552C337.646 81.9319 338.361 81.4186 339.094 81.0152C339.828 80.5752 340.524 80.3552 341.184 80.3552C343.788 80.3552 345.236 81.8036 345.529 84.7002L342.559 87.3952ZM367.255 82.3352L370.17 80.6302L370.445 80.9052C370.225 84.9019 370.115 88.8986 370.115 92.8952C370.115 93.7386 370.078 94.7469 370.005 95.9202C369.968 97.0936 369.987 98.2302 370.06 99.3302C370.133 100.43 370.335 101.347 370.665 102.08C370.995 102.814 371.527 103.18 372.26 103.18C372.663 103.18 373.213 103.07 373.91 102.85C374.607 102.63 375.248 102.41 375.835 102.19L376.22 103.51C375.487 103.95 374.698 104.427 373.855 104.94C373.012 105.417 372.187 105.82 371.38 106.15C370.573 106.517 369.877 106.7 369.29 106.7C368.263 106.7 367.53 106.389 367.09 105.765C366.65 105.142 366.338 104.372 366.155 103.455L365.33 103.235C363.973 104.115 362.543 104.922 361.04 105.655C359.537 106.352 357.978 106.7 356.365 106.7C354.825 106.7 353.542 106.37 352.515 105.71C351.488 105.05 350.663 104.189 350.04 103.125C349.417 102.062 348.958 100.907 348.665 99.6602C348.408 98.3769 348.28 97.1119 348.28 95.8652C348.28 93.9219 348.518 92.0336 348.995 90.2002C349.508 88.3669 350.278 86.7169 351.305 85.2502C352.368 83.7469 353.725 82.5736 355.375 81.7302C357.025 80.8502 359.023 80.4102 361.37 80.4102C362.25 80.4102 363.222 80.5752 364.285 80.9052C365.385 81.2352 366.375 81.7119 367.255 82.3352ZM366.045 100.595V87.9452C366.045 87.2119 366.008 86.5152 365.935 85.8552C365.862 85.1952 365.605 84.6269 365.165 84.1502C364.688 83.6369 364.12 83.2152 363.46 82.8852C362.8 82.5186 362.122 82.3352 361.425 82.3352C359.408 82.3352 357.667 83.0319 356.2 84.4252C355.577 85.0119 354.935 86.0936 354.275 87.6702C353.652 89.2469 353.303 91.4286 353.23 94.2152C353.193 95.3519 353.285 96.5069 353.505 97.6802C353.725 98.8169 354.147 99.8619 354.77 100.815C355.357 101.732 356.145 102.337 357.135 102.63C358.162 102.924 359.188 103.07 360.215 103.07C361.278 103.07 362.305 102.814 363.295 102.3C364.322 101.787 365.238 101.219 366.045 100.595Z" fill="#122650"/>
<path d="M210.151 6.41696C206.793 0.0754936 201.795 -1.56583 195.155 1.493C192.991 2.46287 189.373 5.33518 184.3 10.1099C179.301 14.8101 175.347 19.0626 172.438 22.8675C162.515 35.625 154.98 46.1444 149.832 54.4256C145.281 61.5878 142.446 65.6538 141.327 66.6236C140.506 67.3697 139.648 67.1832 138.753 66.0641C138.082 65.2434 137.709 63.9005 137.634 62.0354C137.559 60.1702 137.671 56.0296 137.97 49.6136C138.492 39.691 138.641 30.5519 138.417 22.196C138.194 13.8402 137.671 8.65513 136.851 6.64078C135.582 3.80577 133.68 2.20175 131.143 1.82872C128.681 1.38109 125.809 2.23905 122.526 4.40261C119.99 6.11854 114.096 8.2448 104.845 10.7814C95.6684 13.2434 84.8506 15.6681 72.3915 18.0554C53.3671 21.7857 38.8563 25.9636 28.8592 30.5892C18.862 35.1401 12.1848 40.6982 8.82759 47.2635C5.47034 53.978 4.72429 60.2449 6.58942 66.0641C8.52917 71.8833 12.8563 76.4343 19.5708 79.7169C22.4804 81.1344 25.2781 81.9178 27.9639 82.067C31.8434 82.3654 34.1935 81.5447 35.0141 79.605C35.984 77.3668 34.2681 74.9795 29.8664 72.4429C24.7932 69.5332 22.555 65.5418 23.1519 60.4687C23.8233 55.3955 27.2552 49.8747 33.4474 43.9062C37.4761 39.9522 44.489 36.0727 54.4862 32.2678C64.4833 28.4629 75.8234 25.3295 88.5063 22.8675C95.4446 21.5992 101.413 20.1071 106.412 18.3912C112.082 16.3768 115.103 15.8546 115.476 16.8244C115.924 17.7197 114.469 21.7111 111.112 28.7986C109.247 32.6035 103.614 46.6293 94.2136 70.8761C84.8133 95.0483 78.248 110.268 74.5178 116.535C71.5335 121.683 68.5493 126.308 65.5651 130.411C62.5809 134.515 60.6411 136.716 59.7459 137.014C58.4776 137.462 56.0902 139.439 52.5837 142.945C42.2136 153.091 33.1863 154.77 25.5019 147.981C21.4732 144.475 19.0859 140.334 18.3398 135.559C17.5937 130.71 18.5263 126.233 21.1375 122.13C23.8233 118.027 27.7401 115.192 32.8879 113.625C37.1404 112.357 40.5722 112.431 43.1834 113.849C45.8692 115.266 47.1748 117.654 47.1002 121.011C47.1002 124.368 45.6454 127.875 42.7358 131.53C41.2437 133.396 40.3111 135.074 39.9381 136.566C39.2666 138.954 39.9008 140.297 41.8405 140.595C44.3771 141.043 47.3987 139.364 50.9051 135.559C52.0988 134.216 53.5536 133.545 55.2695 133.545C56.9855 133.545 58.0672 132.985 58.5149 131.866C58.9625 130.672 59.1863 127.8 59.1863 123.249C59.1863 118.027 57.6569 113.103 54.5981 108.477C51.5393 103.852 47.9582 101.017 43.8549 99.9723C39.8262 98.9278 33.8577 99.3009 25.9496 101.091C18.116 102.882 12.7444 105.045 9.83477 107.582C4.53777 112.208 1.36704 118.81 0.322559 127.39C-0.721918 135.969 0.770193 143.244 4.79889 149.212C6.96245 152.345 10.9165 155.553 16.6612 158.836C22.4804 162.119 27.1432 163.797 30.6497 163.872C41.1691 164.096 50.4575 161.112 58.5149 154.919C66.5723 148.652 74.3312 138.394 81.7918 124.145C89.2524 109.895 97.2724 90.0498 105.852 64.6093C109.209 54.6867 111.671 47.8603 113.238 44.1301C114.805 40.3252 115.998 38.4227 116.819 38.4227C118.162 38.4227 118.05 44.4285 116.483 56.44C114.991 68.4515 113.313 81.4328 111.447 95.3841C109.657 109.261 109.172 117.766 109.993 120.899C110.813 123.883 112.492 125.786 115.029 126.606C117.565 127.427 119.691 126.756 121.407 124.592C122.079 123.846 124.802 118.773 129.577 109.373C134.426 99.8977 137.746 93.2205 139.536 89.341C140.954 86.133 143.491 81.4701 147.146 75.3525C150.802 69.1602 153.115 65.1315 154.085 63.2664C156.099 59.3869 161.023 52.0009 168.856 41.1085C171.095 38.0497 173.034 35.4385 174.676 33.275C179.301 27.4557 182.211 24.5834 183.405 24.658C185.046 24.7326 183.815 30.7011 179.712 42.5633C174.788 56.6638 171.132 69.9809 168.745 82.5146C167.924 86.4687 166.581 92.3252 164.716 100.084C162.776 108.44 161.936 110.491 161.413 119.07C160.891 127.575 161.227 133.581 162.421 137.088C164.957 144.548 168.949 149.771 174.395 152.755C179.916 155.739 186.961 169.653 193.378 167.415C199.868 165.102 201.51 177.934 206.807 170.996C207.329 170.324 212.551 173.532 213.073 172.786C219.116 164.356 220.161 177.114 220.236 172.786C220.31 170.474 216.953 170.448 214.864 170.746C213.372 170.97 204.419 163.162 202.33 167.415C200.241 171.891 195.765 157.791 190.692 162.938C185.693 168.086 208.597 166.52 206.807 165.624C203.67 164.056 195.168 157.567 186.215 145.033C183.614 141.391 181.166 130.747 184.3 112.17C187.508 93.5935 191.686 76.285 196.834 60.2449C201.31 43.5332 203.809 34.6179 204.331 33.4988L205.227 30.5892C209.181 17.6824 211.195 10.6322 211.27 9.43849C211.27 8.84164 210.897 7.83447 210.151 6.41696Z" fill="#34D399"/>
<path d="M219.103 6.41696C215.746 0.0754936 210.747 -1.56583 204.108 1.493C201.944 2.46287 198.326 5.33518 193.252 10.1099C188.254 14.8101 184.3 19.0626 181.39 22.8675C171.468 35.625 163.932 46.1444 158.785 54.4256C154.234 61.5878 151.399 65.6538 150.28 66.6236C149.459 67.3697 148.601 67.1832 147.706 66.0641C147.034 65.2434 146.661 63.9005 146.587 62.0354C146.512 60.1702 146.624 56.0296 146.922 49.6136C147.445 39.691 147.594 30.5519 147.37 22.196C147.146 13.8402 146.624 8.65513 145.803 6.64078C144.535 3.80577 142.633 2.20175 140.096 1.82872C137.634 1.38109 134.762 2.23905 131.479 4.40261C128.942 6.11854 123.049 8.2448 113.798 10.7814C104.621 13.2434 93.8033 15.6681 81.3441 18.0554C62.3197 21.7857 47.809 25.9636 37.8118 30.5892C27.8147 35.1401 21.1375 40.6982 17.7802 47.2635C14.423 53.978 13.6769 60.2449 15.5421 66.0641C17.4818 71.8833 21.8089 76.4343 28.5234 79.7169C31.433 81.1344 34.2307 81.9178 36.9165 82.067C40.796 82.3654 43.1461 81.5447 43.9668 79.605C44.9366 77.3668 43.2207 74.9795 38.819 72.4429C33.7458 69.5332 31.5076 65.5418 32.1045 60.4687C32.7759 55.3955 36.2078 49.8747 42.4001 43.9062C46.4288 39.9522 53.4417 36.0727 63.4388 32.2678C73.436 28.4629 84.776 25.3295 97.4589 22.8675C104.397 21.5992 110.366 20.1071 115.364 18.3912C121.034 16.3768 124.056 15.8546 124.429 16.8244C124.876 17.7197 123.422 21.7111 120.064 28.7986C118.199 32.6035 112.567 46.6293 103.166 70.8761C93.766 95.0483 87.2007 110.268 83.4704 116.535C80.4862 121.683 77.502 126.308 74.5177 130.411C71.5335 134.515 69.5938 136.716 68.6985 137.014C67.4302 137.462 65.0428 139.439 61.5364 142.945C51.1662 153.091 42.1389 154.77 34.4546 147.981C30.4259 144.475 28.0385 140.334 27.2924 135.559C26.5464 130.71 27.4789 126.233 30.0901 122.13C32.7759 118.027 36.6927 115.192 41.8405 113.625C46.093 112.357 49.5249 112.431 52.1361 113.849C54.8219 115.266 56.1275 117.654 56.0529 121.011C56.0529 124.368 54.5981 127.875 51.6884 131.53C50.1963 133.396 49.2638 135.074 48.8907 136.566C48.2193 138.954 48.8534 140.297 50.7932 140.595C53.3298 141.043 56.3513 139.364 59.8577 135.559C61.0514 134.216 62.5062 133.545 64.2222 133.545C65.9381 133.545 67.0199 132.985 67.4675 131.866C67.9151 130.672 68.139 127.8 68.139 123.249C68.139 118.027 66.6096 113.103 63.5507 108.477C60.4919 103.852 56.9108 101.017 52.8075 99.9723C48.7788 98.9278 42.8104 99.3009 34.9022 101.091C27.0686 102.882 21.697 105.045 18.7874 107.582C13.4904 112.208 10.3197 118.81 9.2752 127.39C8.23072 135.969 9.72283 143.244 13.7515 149.212C15.9151 152.345 19.8692 155.553 25.6138 158.836C31.433 162.119 36.0959 163.797 39.6023 163.872C50.1217 164.096 59.4101 161.112 67.4675 154.919C75.5249 148.652 83.2839 138.394 90.7444 124.145C98.205 109.895 106.225 90.0498 114.805 64.6093C118.162 54.6867 120.624 47.8603 122.191 44.1301C123.757 40.3252 124.951 38.4227 125.772 38.4227C127.115 38.4227 127.003 44.4285 125.436 56.44C123.944 68.4515 122.265 81.4328 120.4 95.3841C118.61 109.261 118.125 117.766 118.945 120.899C119.766 123.883 121.445 125.786 123.981 126.606C126.518 127.427 128.644 126.756 130.36 124.592C131.031 123.846 133.755 118.773 138.529 109.373C143.379 99.8977 146.699 93.2205 148.489 89.341C149.907 86.133 152.443 81.4701 156.099 75.3525C159.755 69.1602 162.067 65.1315 163.037 63.2664C165.052 59.3869 169.976 52.0009 177.809 41.1085C180.047 38.0497 181.987 35.4385 183.628 33.275C188.254 27.4557 191.163 24.5834 192.357 24.658C193.998 24.7326 192.768 30.7011 188.664 42.5633C183.74 56.6638 180.085 69.9809 177.697 82.5146C176.877 86.4687 175.534 92.3252 173.668 100.084C171.729 108.44 170.888 110.491 170.366 119.07C169.844 127.575 170.18 133.581 171.373 137.088C173.91 144.548 177.901 149.771 183.347 152.755C188.868 155.739 195.914 169.653 202.33 167.415C208.821 165.102 210.462 177.934 215.759 170.996C216.281 170.324 221.504 173.532 222.026 172.786C228.069 164.356 229.114 177.114 229.188 172.786C229.263 170.474 225.906 170.448 223.817 170.746C222.324 170.97 213.372 163.162 211.283 167.415C209.194 171.891 204.718 157.791 199.644 162.938C194.646 168.086 217.55 166.52 215.759 165.624C212.623 164.056 204.121 157.567 195.168 145.033C192.566 141.391 190.119 130.747 193.252 112.17C196.46 93.5935 200.638 76.285 205.786 60.2449C210.263 43.5332 212.762 34.6179 213.284 33.4988L214.179 30.5892C218.133 17.6824 220.148 10.6322 220.222 9.43849C220.222 8.84164 219.849 7.83447 219.103 6.41696Z" fill="#122650"/>
<path d="M178.918 126.559C179.315 128.44 179.82 130.934 180.316 132.807C180.47 133.394 180.168 133.175 180.271 133.585C180.477 134.387 180.86 135.06 181.098 135.846C181.177 136.108 180.733 135.934 180.824 136.207C181.331 137.703 182.106 139.003 182.866 140.412C186.64 147.399 192.644 153.074 199.498 157.695C201.809 159.26 204.472 161.135 207.188 162.364C207.485 162.497 207.446 162.146 207.512 162.153C208.543 162.255 207.988 162.643 208.526 162.996C210.636 164.386 213.429 165.651 215.716 166.452C216.704 166.797 215.948 165.863 216.805 166.559C216.866 166.607 216.502 166.799 216.758 166.937C217.338 167.248 218.53 167.645 219.007 167.849C219.924 168.243 220.082 168.297 220.979 168.623C222.237 169.081 223.575 169.702 224.895 170.058C225.176 170.132 224.91 169.708 225.367 169.799C225.824 169.891 226.993 170.289 227.374 170.485C227.753 170.681 227.508 170.869 227.562 170.946C228.005 171.595 229.6 171.364 229.786 171.4C233.153 172.084 235.712 173.152 238.875 173.914C241.329 174.501 243.697 174.892 245.973 175.379C248.641 175.95 250.979 176.567 253.523 176.981C253.797 177.026 253.542 176.599 253.876 176.652C257.395 177.219 261.144 177.833 264.579 178.554C264.932 178.628 264.428 178.894 264.778 178.988C266.917 179.556 270.383 180.633 271.889 179.348C273.422 179.579 275.151 179.82 276.467 180.244C277.308 180.516 276.437 180.792 277.511 180.743C277.754 180.732 277.473 180.387 277.834 180.395C279.355 180.426 281.012 180.678 282.547 180.644C282.859 180.636 282.798 180.347 282.89 180.303C283.658 179.954 284.845 180.733 285.085 180.801C287.029 181.323 288.497 181.282 290.367 181.414C290.801 181.445 290.312 181.032 290.731 181.048C292.899 181.134 295.186 181.297 297.321 181.573C297.784 181.635 297.34 181.937 297.561 181.983C298.535 182.182 298.782 181.581 299.722 181.756C299.92 181.792 299.795 182.064 299.83 182.096C300.379 182.6 300.906 181.944 301.053 181.935C302.923 181.809 304.095 182.561 305.924 182.521C306.143 182.516 305.662 182.149 306.276 182.155C310.447 182.191 314.569 182.37 318.638 182.689C319.266 182.738 318.815 182.997 318.854 183.03C319.495 183.544 319.92 182.866 320.126 182.842C321.744 182.669 323.298 183.243 324.354 182.432C331.065 182.712 337.968 182.139 344.672 182.655C344.758 182.661 344.614 183.001 344.787 183.011C346.862 183.132 346.449 182.624 347.799 181.939C348.139 181.767 349.223 182.497 349.319 182.549C349.668 182.744 349.333 183.256 349.449 183.291C350.407 183.571 350.192 181.929 351.463 181.878C351.502 181.879 351.351 182.189 351.457 182.215C351.785 182.296 352.101 182.162 352.423 182.253C353.161 182.464 353.455 183.254 354.55 182.738C354.689 182.671 354.431 181.747 355.55 181.74C355.995 181.738 357.972 181.627 358.532 181.659C359.091 181.692 358.725 182.012 358.765 182.023C360.284 182.345 359.724 182.538 360.508 183.088C361.293 183.636 361.009 182.246 361.308 182.074C361.607 181.902 362.73 182.169 363.009 182.268C363.287 182.367 362.959 182.577 363.204 182.628C364.833 182.96 363.869 181.894 364.385 181.641C365.607 181.043 366.627 182.024 367.75 182.056C368.054 182.065 367.792 181.844 368.061 181.805C369.124 181.654 369.788 181.937 370.99 181.56C371.187 181.499 372.133 180.81 372.805 181.224C372.9 181.283 372.659 181.56 373.122 181.586C373.814 181.626 375.057 181.597 375.792 181.457C376.334 181.354 375.676 180.973 376.374 181.056C376.685 181.093 376.135 181.383 376.717 181.431C377.296 181.481 378.762 181.361 379.321 181.31C379.879 181.259 379.548 180.959 379.592 180.934C379.855 180.789 380.916 180.55 381.011 180.543C385.683 180.141 390.077 180.313 394.701 179.703C395.063 179.656 394.789 179.338 394.844 179.328C396.078 179.069 395.179 180.065 396.079 180.286C395.885 179.608 396.426 179.683 397.273 179.526C397.684 179.449 397.433 179.204 397.468 179.173C398.044 178.708 398.524 179.191 398.645 179.287C399.092 179.642 399.491 179.133 399.795 179.369C400.099 179.603 399.496 180.054 400.326 179.967C400.534 179.697 399.855 179.113 400.474 178.946C402.806 178.319 407.319 178.361 409.26 178.202C411.19 178.047 411.829 177.929 412.941 177.896C414.957 177.833 414.171 177.437 415.388 177.077C416.609 176.716 416.138 177.961 416.347 178.193C416.552 178.425 416.715 178.143 416.95 178.257C417.185 178.37 416.731 178.597 417.252 178.589C417.772 178.582 419.13 177.968 419.282 177.682C419.602 177.076 418.897 176.565 420.287 176.609C420.367 176.612 420.148 176.951 420.453 176.947C422.871 176.9 425.366 176.61 427.799 176.516C428.134 176.504 427.881 176.885 428.077 176.882C430.093 176.849 429.303 176.361 430.304 175.579C430.172 176.466 430.836 176.914 432.338 176.724C433.242 176.609 433.038 176.256 433.587 175.916C433.752 175.813 434.425 175.986 434.518 175.795C434.825 175.169 434.136 174.607 435.721 174.656C435.791 174.66 435.616 175.003 435.854 174.99C437.393 174.911 437.494 174.286 439.132 173.989C440.416 173.756 442.771 173.802 444.26 173.652C444.37 174.616 445.719 174.201 446.181 173.459C447.13 173.351 448.147 173.166 449.076 173.124C449.396 173.109 449.23 173.417 449.274 173.442C449.952 173.824 450.271 173.119 450.472 173.064C452.656 172.493 454.544 172.709 456.602 171.909C456.675 171.88 456.695 171.195 457.339 171.595C457.381 171.622 456.723 172.033 457.73 171.903C458.733 171.774 460.697 171.836 462.026 171.311C462.347 171.185 463.104 170.512 463.848 170.827C463.947 170.87 463.878 171.076 464.026 171.162C464.5 171.434 464.623 170.725 465.209 171.217C465.795 171.71 466.896 171.973 468.227 171.353C468.27 171.334 468.514 170.748 468.954 170.685C469.657 170.585 470.67 170.533 471.403 170.409C471.754 170.349 471.474 170.055 471.534 170.039C473.863 169.464 475.595 169.477 478.157 169.173C478.625 169.118 479.864 168.443 480.816 168.645C481.861 168.866 481.136 170.663 483.321 169.884C484.204 169.571 484.991 167.314 486.815 168.089C489.937 167.263 492.992 167.272 496.104 166.307C496.243 166.264 496.586 165.608 496.921 165.554C497.419 165.475 497.741 165.692 498.099 165.643C499.599 165.447 500.916 164.962 502.358 164.725C502.905 164.634 502.768 164.947 503.421 164.838C504.074 164.73 504.437 164.282 505.353 164.289C506.044 164.295 506.854 164.911 507.757 164.826C507.648 164.085 508.259 163.982 509.302 163.577C509.502 163.499 509.23 163.287 509.322 163.237C509.696 163.027 510.108 163.166 510.46 162.949C510.546 162.896 510.501 162.645 510.568 162.587C511.138 162.092 512.308 162.446 512.51 162.508C513.274 162.744 513.532 162.354 514.09 162.396C514.648 162.437 513.894 162.778 514.53 162.744C515.847 162.672 517.486 162.301 518.792 162.048C519.313 161.945 518.89 161.683 518.963 161.661C520.021 161.358 521.183 161.49 521.643 160.703C522.743 162.269 522.258 160.403 523.869 160.429C523.996 160.432 524.319 161.213 523.877 161.429C523.436 161.644 522.677 161.536 522.069 161.854C521.925 161.93 521.204 162.871 521.094 162.942C520.231 163.494 519.851 162.305 519.787 162.248C519.079 161.642 518.177 162.68 517.907 162.794C516.671 163.314 515.543 163.362 514.505 163.762C513.825 164.022 513.915 164.833 513.358 164.918C511.492 165.204 510.621 164.22 509.065 165.525C508.73 165.804 509.272 166.604 507.797 166.179C507.704 166.152 506.587 165.717 506.09 166.225C506.027 166.288 506.078 166.542 505.987 166.582C505.376 166.843 504.911 166.722 504.236 166.952C503.56 167.181 502.753 167.485 501.944 167.548C501.457 167.587 500.756 167.229 500.506 167.155C499.799 166.942 499.212 167.62 498.737 167.289C498.26 166.957 498.929 166.193 497.827 166.126C497.912 166.795 497.948 167.49 498.009 168.167C495.709 168.571 493.352 168.782 491.024 169.233C490.735 169.289 491.095 169.591 490.787 169.661C489.486 169.954 488.297 169.905 486.959 170.246C485.923 170.512 484.839 171.091 483.76 171.377C482.959 170.736 481.38 171.276 480.19 171.408C479.773 171.455 479.766 171.248 479.462 171.232C478.314 171.176 478.948 171.758 478.66 171.916C477.417 172.59 477.047 171.092 475.502 171.391C475.42 171.406 474.551 172.383 474.421 172.457C473.596 172.932 474.228 172.199 473.668 172.231C472.647 172.289 471.918 172.21 470.782 172.64C470.451 172.767 469.712 173.406 468.984 173.123C468.888 173.086 468.893 172.811 468.82 172.806C467.505 172.751 467.608 173.597 466.927 173.999C466.245 174.401 465.031 173.999 464.777 173.867C464.111 173.529 465.204 173.61 465.23 173.562C465.529 172.996 464.725 173.213 464.095 173.269C463.874 172.458 463.01 172.645 463.442 173.33C463.491 173.405 463.964 173.251 464.095 173.269C463.674 174.165 462.736 174.42 461.553 173.829C460.996 173.553 461.406 173.066 459.905 173.453C459.223 173.629 459.578 174.156 458.992 174.405C457.651 174.973 455.762 174.718 454.343 175.015C453.828 175.124 454.381 175.359 454.03 175.444C453.1 175.669 452.236 175.559 451.309 175.817C451.225 175.841 451.482 176.137 451.189 176.184C448.965 176.549 447.015 176.617 444.684 176.941C443.548 177.099 441.545 177.562 440.368 177.686C438.328 177.904 435.774 177.763 434.066 178.105C432.951 178.327 433.241 178.621 432.788 178.907C431.914 179.46 430.173 178.897 429.938 178.805C429.931 178.802 430.885 178.601 430.349 178.5C430.005 178.188 429.949 178.802 429.938 178.805C429.788 178.746 427.838 178.918 427.452 179.029C427.245 179.09 427.402 179.385 427.294 179.411C424.711 180.016 422.108 180.412 419.458 180.577C419.411 180.576 419.44 180.221 419.33 180.223C417.789 180.247 416.866 180.784 415.642 181.179C414.419 181.574 413.422 181.6 412.614 181.086C411.661 181.268 410.257 181.154 409.451 181.079C408.644 181.004 408.607 181.692 408.539 181.713C406.419 182.371 405.13 182.114 402.892 182.28C401.828 182.358 399.74 182.663 398.606 182.847C397.705 182.994 397.165 182.885 396.317 183.068C396.204 183.092 396.348 183.383 396.314 183.397C395.401 183.847 395.788 183.067 395.58 182.954C394.828 182.541 394.368 182.327 393.182 182.662C392.908 182.739 392.193 183.874 391.692 183.981C391.04 184.118 391.255 183.715 390.574 183.868C390.516 183.881 390.549 184.115 390.123 184.142C388.147 184.269 385.995 184.312 383.966 184.499C383.689 184.524 384.075 184.868 383.674 184.91C381.815 185.104 379.698 185.252 377.825 185.214C377.364 185.204 377.632 184.922 377.527 184.851C376.883 184.427 376.069 185.171 375.927 185.194C372.554 185.762 369.932 185.315 366.539 185.815C366.362 185.843 364.929 186.661 364.243 186.071C364.196 186.032 363.515 185.427 362.971 185.897C362.937 185.926 363.356 186.235 362.654 186.24C361.953 186.245 360.84 186.526 359.864 186.212C359.555 186.113 358.807 185.51 357.932 186.064C357.875 186.103 356.54 187.325 356.009 186.551C355.922 186.423 355.966 185.577 354.917 186.058C354.717 186.151 355.096 186.322 354.563 186.464C353.747 186.682 352.648 186.503 351.656 186.919C351.483 186.993 350.732 187.597 350.1 187.186C350 187.122 350.173 186.833 349.846 186.814C348.295 186.722 346.691 186.967 345.129 186.822C344.577 186.77 344.844 186.306 344.267 186.202C343.69 186.098 342.537 186.014 341.947 186.238C341.356 186.462 342.027 187.171 341.135 187.252C337.309 187.605 333.316 187.249 329.43 187.22C328.852 187.215 329.333 187.471 328.482 187.482C325.378 187.529 319.902 187.757 317.162 187.167C314.978 186.697 317.736 186.396 316.068 186.194C315.264 186.097 314.383 186.926 314.189 186.95C312.287 187.186 311.012 186.784 309.293 186.855C308.933 186.869 309.277 187.22 308.97 187.229C307.923 187.26 306.833 187.075 305.842 187.07C305.397 187.069 305.47 187.333 305.062 187.299C304.087 187.22 303.23 187.079 302.296 186.797C302.211 186.771 302.803 186.469 302.088 186.429C300.93 186.364 299.511 186.061 298.183 186.246C297.789 186.302 297.743 186.898 296.926 186.445C296.753 186.349 297.025 185.646 295.981 186.212C295.806 186.306 294.064 187.049 293.27 186.462C293.059 186.308 292.539 185.689 292.055 185.752C291.989 185.763 292.23 186.099 291.831 186.106C290.425 186.124 288.971 185.993 287.546 185.992C287.165 185.992 287.705 186.364 287.139 186.353C285.583 186.326 283.668 186.091 282.101 185.854C281.532 185.767 281.951 185.527 281.912 185.493C281.285 184.952 280.835 185.571 280.61 185.59C279.214 185.697 278.203 185.292 276.944 185.252C276.597 185.24 276.811 185.575 276.74 185.596C276 185.797 276.586 185.29 276.142 185.184C274.9 184.884 273.504 184.762 272.245 184.663C271.767 184.625 272.265 185.046 271.832 185.007C269.267 184.784 266.652 184.428 264.262 183.905C263.812 183.805 264.136 183.567 264.049 183.491C263.457 182.96 262.424 183.432 262.197 183.458C261.164 183.579 260.835 183.282 259.907 183.191C255.375 182.755 250.279 181.707 246.065 180.751C240.799 179.552 236.683 178.317 231.717 177.044C231.403 176.962 231.621 177.407 231.349 177.341C227.827 176.47 224.25 175.224 220.84 174.162C220.554 174.072 220.86 174.551 220.377 174.41C219.384 174.123 218.17 173.667 217.251 173.204C216.804 172.978 217.535 172.929 217.083 172.708C216.033 172.193 214.895 171.723 213.791 171.336C213.321 171.171 213.88 171.789 213.279 171.548C209.03 169.843 205.11 168.077 201.214 165.364C200.954 165.181 201.076 164.41 200.436 164.202C200.291 164.353 200.173 164.561 200.045 164.739C194.288 161.532 188.993 157.357 184.364 152.447C184.166 152.237 184.229 152.868 183.844 152.459C181.645 150.113 179.571 147.674 178.113 144.662C177.971 144.364 178.632 144.145 178.051 143.388C177.948 143.262 177.141 142.048 176.835 141.783C176.791 141.748 176.638 142.137 176.405 141.724C175.057 139.321 173.997 136.618 173.368 133.951C173.267 133.521 173.731 133.868 173.663 133.562C173.181 131.392 172.416 129.116 172.417 126.992C172.428 125.573 173.084 126.01 173.571 125.217C173.638 125.106 173.566 124.257 173.899 124.183C174.731 124 175.69 124.311 176.572 124.066C176.759 124.015 176.466 122.969 176.984 123.561C177.017 123.603 177.241 124.351 177.421 124.518C177.544 124.634 177.859 124.368 178.027 124.613C178.196 124.855 177.944 125.173 178.164 125.577C178.389 125.977 178.743 125.741 178.918 126.559ZM405.829 180.74C405.068 180.49 405.084 181.691 405.841 181.325C405.878 181.306 405.868 180.752 405.829 180.74ZM493.209 167.889C492.172 167.541 491.665 168.421 492.403 168.702C493.142 168.981 493.525 167.993 493.209 167.889ZM502.85 165.7C501.679 165.499 501.822 167.199 502.931 166.639C502.996 166.607 502.919 165.712 502.85 165.7ZM174.231 128.502C174.243 128.489 174.151 127.897 174.134 127.886C173.703 127.634 173.888 128.829 174.231 128.502ZM512.428 163.415C512.04 163.258 511.104 163.712 511.585 163.908C511.973 164.066 512.911 163.61 512.428 163.415ZM367.816 182.637C367.803 182.62 367.385 182.63 367.399 182.73C367.448 183.052 368.023 182.925 367.816 182.637ZM528.756 160.061C526.321 160.507 524.571 159.439 527.236 159.044C527.719 158.972 526.3 159.697 526.932 159.694C528.091 159.686 528.648 158.67 529.88 158.891C530.103 158.932 528.896 160.038 528.753 160.063C528.754 160.062 528.755 160.062 528.756 160.061ZM405.262 179.354C405.245 179.34 404.661 179.385 404.649 179.402C404.373 179.812 405.549 179.721 405.262 179.354ZM343.119 183.029C343.086 182.997 341.734 183.003 341.691 183.035C341.002 183.676 343.738 183.665 343.119 183.029ZM444.287 173.674C444.876 173.205 445.607 173.056 446.178 173.459C445.549 173.523 444.933 173.607 444.287 173.674Z" fill="#122650"/>
</svg>
